<svg width="24" height="24" viewBox="0 0 24 24" fill="none" xmlns="http://www.w3.org/2000/svg">
<path d="M19.8881 12.5174V7.77463C19.8881 7.18094 19.405 6.69772 18.8113 6.69772H11.5493C10.9556 6.69772 10.4725 7.1808 10.4725 7.77463V12.517H9.72062V13.0844C9.72062 13.5669 10.1133 13.9594 10.5957 13.9594H13.6972V12.5169H11.2799L11.2801 7.77449C11.2801 7.6261 11.4009 7.5053 11.5493 7.5053H18.811C18.9594 7.5053 19.0802 7.6261 19.0802 7.77449V12.5169H18.6029V13.9594H19.7644C20.247 13.9594 20.6395 13.5668 20.6395 13.0844V12.517L19.8879 12.5169L19.8881 12.5174ZM18.1995 11.2041V17.7026C18.1995 17.9771 17.976 18.2006 17.7023 18.2006H14.5987C14.3242 18.2006 14.1014 17.9771 14.1014 17.7026V11.2041C14.1014 10.93 14.3242 10.7068 14.5987 10.7068H17.702C17.976 10.7065 18.1995 10.93 18.1995 11.2041V11.2041ZM15.7995 11.2626C15.7995 11.3109 15.8385 11.3507 15.8871 11.3507H16.4141C16.4625 11.3507 16.5017 11.3109 16.5017 11.2626C16.5017 11.2142 16.4628 11.175 16.4141 11.175H15.8871C15.8385 11.175 15.7995 11.214 15.7995 11.2626ZM16.15 17.0672C15.9533 17.0672 15.7933 17.2275 15.7933 17.4245C15.7933 17.6216 15.9535 17.7819 16.15 17.7819C16.3471 17.7819 16.5074 17.6216 16.5074 17.4245C16.5074 17.2275 16.3471 17.0672 16.15 17.0672ZM17.6577 11.819H14.6426V16.6197H17.6577V11.819ZM14.1414 0.998814H4.16112C3.71969 0.998814 3.36024 1.35827 3.36024 1.79969V8.57455C3.36024 9.01677 3.71969 9.37612 4.16112 9.37612H7.52554V10.7268H6.28978V11.5344H10.0688V7.68412H4.16784V1.80652H14.1354V6.29349H14.943L14.9429 1.79966C14.9429 1.35823 14.5836 0.998779 14.1416 0.998779L14.1414 0.998814Z" fill="#3636EE"/>
</svg>
