<?xml version="1.0" encoding="iso-8859-1"?>
<!-- Generator: Adobe Illustrator 19.0.0, SVG Export Plug-In . SVG Version: 6.00 Build 0)  -->
<svg version="1.1" id="Capa_1" xmlns="http://www.w3.org/2000/svg" xmlns:xlink="http://www.w3.org/1999/xlink" x="0px" y="0px"
	 viewBox="0 0 512.019 512.019" style="enable-background:new 0 0 512.019 512.019;" xml:space="preserve">
<g>
	<g>
		<path d="M256.009,221.867c-70.692,0-128,57.308-128,128s57.308,128,128,128s128-57.308,128-128
			C383.929,279.207,326.669,221.947,256.009,221.867z M256.009,460.8c-61.267,0-110.933-49.667-110.933-110.933
			s49.667-110.933,110.933-110.933S366.943,288.6,366.943,349.867C366.875,411.105,317.248,460.732,256.009,460.8z"/>
	</g>
</g>
<g>
	<g>
		<path d="M486.409,179.2h-51.2V76.8h68.267c4.713,0,8.533-3.82,8.533-8.533c-0.028-23.553-19.114-42.639-42.667-42.667h-34.133
			V8.533c0-4.713-3.82-8.533-8.533-8.533s-8.533,3.82-8.533,8.533V25.6h-34.133c-23.553,0.028-42.639,19.114-42.667,42.667
			c0,4.713,3.82,8.533,8.533,8.533h68.267v102.4h-51.2c-14.132,0.015-25.585,11.468-25.6,25.6v7.466
			c-23.143-14.413-49.571-22.707-76.8-24.1V153.6h76.8c4.713,0,8.533-3.821,8.533-8.533c-0.028-23.553-19.114-42.639-42.667-42.667
			h-42.667V85.333c0-4.713-3.82-8.533-8.533-8.533c-4.713,0-8.533,3.82-8.533,8.533V102.4h-42.667
			c-23.553,0.028-42.639,19.114-42.667,42.667c0,4.713,3.82,8.533,8.533,8.533h76.8v34.566c-27.229,1.393-53.657,9.687-76.8,24.1
			V204.8c-0.015-14.132-11.468-25.585-25.6-25.6h-51.2V76.8h68.267c4.713,0,8.533-3.82,8.533-8.533
			c-0.028-23.553-19.114-42.639-42.667-42.667H93.876V8.533C93.876,3.82,90.055,0,85.343,0s-8.533,3.82-8.533,8.533V25.6H42.676
			C19.123,25.628,0.037,44.714,0.009,68.267c0,4.713,3.82,8.533,8.533,8.533h68.267v102.4h-51.2
			c-14.132,0.015-25.585,11.468-25.6,25.6v42.667c0.02,7.24,3.123,14.13,8.533,18.942v49.325c0.015,14.132,11.468,25.585,25.6,25.6
			h42.667v123.9l-39.462,31.571c-3.691,2.929-4.308,8.296-1.378,11.987c2.929,3.691,8.296,4.308,11.987,1.378
			c0.017-0.013,0.033-0.026,0.05-0.04l37.338-29.87l37.338,29.87c3.691,2.929,9.057,2.312,11.987-1.379
			c2.914-3.671,2.321-9.005-1.328-11.946l-39.462-31.57V349.867v-8.533h0.432c-0.149,2.844-0.432,5.653-0.432,8.533
			c0.007,48.895,22.12,95.167,60.16,125.886c-0.234,0.683-0.378,1.394-0.427,2.114v25.6c0,4.713,3.82,8.533,8.533,8.533
			s8.533-3.82,8.533-8.533v-15.999c52.187,32.71,118.48,32.71,170.667,0v15.999c0,4.713,3.82,8.533,8.533,8.533
			s8.533-3.82,8.533-8.533v-25.6c-0.049-0.72-0.192-1.431-0.427-2.114c38.04-30.719,60.153-76.991,60.16-125.886
			c0-2.88-0.283-5.69-0.432-8.533h0.432v8.533v115.367l-39.463,31.571c-3.69,2.93-4.307,8.296-1.378,11.987
			c2.93,3.69,8.296,4.307,11.987,1.378c0.016-0.013,0.033-0.026,0.049-0.039l37.338-29.87l37.338,29.87
			c3.669,2.957,9.04,2.38,11.996-1.289c2.957-3.669,2.38-9.04-1.289-11.997c-0.016-0.013-0.033-0.026-0.049-0.039l-39.462-31.57
			V341.333h42.667c14.132-0.015,25.585-11.468,25.6-25.6v-49.325c5.41-4.812,8.513-11.701,8.533-18.942V204.8
			C511.994,190.668,500.541,179.215,486.409,179.2z M359.872,59.733c3.627-10.221,13.292-17.054,24.137-17.067h85.333
			c10.845,0.012,20.51,6.846,24.137,17.067H359.872z M180.672,136.533c3.627-10.221,13.292-17.054,24.137-17.067h102.4
			c10.845,0.012,20.51,6.846,24.137,17.067H180.672z M18.538,59.733c3.627-10.221,13.292-17.054,24.138-17.067h85.333
			c10.845,0.012,20.51,6.846,24.137,17.067H18.538z M17.076,204.8c0.006-4.71,3.823-8.527,8.533-8.533h119.467
			c4.71,0.006,8.527,3.823,8.533,8.533v8.533H17.076V204.8z M146.78,230.4c-6.82,6.23-13.1,13.027-18.771,20.319V230.4H146.78z
			 M110.943,230.4V256h-51.2v-25.6H110.943z M17.076,247.467V230.4h25.6V256H25.609C20.899,255.994,17.082,252.177,17.076,247.467z
			 M34.143,324.267c-4.71-0.006-8.527-3.823-8.533-8.533v-42.667h87.662c-8.567,15.978-14.373,33.288-17.172,51.2H34.143z
			 M256.009,494.933c-80.118,0-145.067-64.949-145.067-145.067S175.891,204.8,256.009,204.8s145.067,64.949,145.067,145.067
			C400.987,429.948,336.09,494.844,256.009,494.933z M365.238,230.4h18.771v20.319C378.338,243.427,372.059,236.63,365.238,230.4z
			 M486.409,315.733c-0.006,4.71-3.823,8.527-8.533,8.533h-61.957c-2.799-17.912-8.605-35.222-17.172-51.2h87.662V315.733z
			 M401.076,256v-25.6h51.2V256H401.076z M494.943,247.467c-0.006,4.71-3.823,8.527-8.533,8.533h-17.067v-25.6h25.6V247.467z
			 M494.943,213.333H358.409V204.8c0.006-4.71,3.823-8.527,8.533-8.533h119.467c4.71,0.006,8.527,3.823,8.533,8.533V213.333z"/>
	</g>
</g>
<g>
</g>
<g>
</g>
<g>
</g>
<g>
</g>
<g>
</g>
<g>
</g>
<g>
</g>
<g>
</g>
<g>
</g>
<g>
</g>
<g>
</g>
<g>
</g>
<g>
</g>
<g>
</g>
<g>
</g>
</svg>
