<?xml version="1.0"?>
<svg xmlns="http://www.w3.org/2000/svg" id="Layer_1" data-name="Layer 1" viewBox="0 0 512 512" width="512" height="512"><path d="M472,51.35c-17.187,1.448-39.118,6.072-61.755,13.02S366.859,79.8,351.819,88.24c-18.407,10.334-25.8,19-23.261,27.258,2.277,7.42,12.283,10.009,24.825,10.009,18.557,0,42.617-5.666,58.617-9.731v41.987l-87.275,14.26A14.777,14.777,0,0,0,312.5,188.884l1.553,9.627A125.884,125.884,0,0,0,261,183.978V167h33.043A10.807,10.807,0,0,0,305,156.445v-9.766A10.912,10.912,0,0,0,294.043,136H215.778A10.756,10.756,0,0,0,205,146.679v9.766A10.651,10.651,0,0,0,215.778,167H249v16.977a127.251,127.251,0,0,0-53.911,14.957l1.956-13.128a15.19,15.19,0,0,0-12.372-16.9L100,153.878v-38.05c18,4.81,34.881,8.021,48.67,9.183,3.855.324,7.483.239,10.672.239,14.213,0,21.973-3.25,24.044-10.25h.028c2.538-8-4.84-16.675-23.247-27.009-15.04-8.444-35.782-16.8-58.419-23.745S57.183,52.736,40,51.288C18.966,49.515,7.986,52.569,5.45,60.832s4.856,16.939,23.263,27.273c15.04,8.444,35.566,16.929,58.2,23.877.436.134,1.084.27,1.084.4v39.359l-13.348-2.414A14.083,14.083,0,0,0,63.8,151.81a14.275,14.275,0,0,0-5.8,9.6l-6.183,41.333a14.87,14.87,0,0,0,11.93,16.9L88,224V374.381L24.248,426.2a5.987,5.987,0,0,0-.774,8.439,6.1,6.1,0,0,0,4.722,2.223,5.461,5.461,0,0,0,3.577-1.338L88,389.823v65.3a6,6,0,0,0,12,0v-65.3l56.646,45.7a6.278,6.278,0,0,0,3.885,1.338,6.1,6.1,0,0,0,4.722-2.223,6.028,6.028,0,0,0-1.082-8.439L100,374.381V226.131l52.845,9.363A126.328,126.328,0,0,0,189,417.957l-13.387,16.4a6.009,6.009,0,0,0,9.311,7.6l14.832-18.124a126.193,126.193,0,0,0,110.3,0l14.828,18.124a6,6,0,0,0,9.288-7.6l-13.414-16.395A126.546,126.546,0,0,0,356.4,234.708l55.6-9.07V374.381L347.8,426.2a6.015,6.015,0,0,0-1,8.439,5.878,5.878,0,0,0,4.61,2.223,6.506,6.506,0,0,0,3.968-1.338L412,389.823v65.3a6,6,0,0,0,12,0v-65.3l56.2,45.7a5.677,5.677,0,0,0,3.661,1.338,5.878,5.878,0,0,0,4.61-2.223,5.979,5.979,0,0,0-.69-8.439L424,374.381V223.672l17.109-2.839a14.62,14.62,0,0,0,12-16.861l-6.138-37.126a14.61,14.61,0,0,0-5.955-9.54,14.071,14.071,0,0,0-10.723-2.574L424,155.8V112.387c0-.157.749-.293,1.085-.4,22.637-6.948,43.274-15.426,58.313-23.869,18.407-10.335,25.743-19,23.207-27.258S493.04,49.579,472,51.35ZM217,148h76v7H217ZM37.683,79.348c-14.02-7.466-19.092-12.677-20.364-14.842,2.268-1.08,9.389-2.547,25.183-.862s35.6,6.018,55.731,12.2,38.95,13.7,52.979,21.17,19.091,12.677,20.363,14.842c-2.267,1.08-9.388,2.547-25.182.863s-35.6-6.018-55.732-12.2S51.712,86.819,37.683,79.348Zm28.4,128.481a3.012,3.012,0,0,1-2.374-3.306l6.211-41.333a2.426,2.426,0,0,1,2.851-2.047l110.013,19.574a3.012,3.012,0,0,1,2.374,3.306l-3.494,23.261a127.416,127.416,0,0,0-19.859,17.576ZM310.791,409.9a5.972,5.972,0,0,0-4.177,2.242,114.194,114.194,0,0,1-103.407,0,6.048,6.048,0,0,0-.895-.909,5.964,5.964,0,0,0-3.282-1.332,114.344,114.344,0,1,1,111.761,0ZM432,166.574a2.706,2.706,0,0,1,3.077,2.212l6.082,37.126a2.717,2.717,0,0,1-2.212,3.079l-91.719,15.024a127.4,127.4,0,0,0-19.743-17.2l-3.255-19.87a2.718,2.718,0,0,1,2.212-3.079Zm42.318-87.226c-14.028,7.471-32.843,14.99-52.977,21.171s-39.928,10.512-55.733,12.2-22.914.217-25.181-.863c1.271-2.165,6.344-7.375,20.362-14.842s32.844-14.99,52.979-21.17,39.926-10.512,55.731-12.2,22.914-.217,25.183.862C493.409,66.671,488.337,71.882,474.317,79.348Z"/><path d="M254.91,207.773a102.4,102.4,0,1,0,102.4,102.4A102.517,102.517,0,0,0,254.91,207.773Zm0,192.8a90.4,90.4,0,1,1,90.4-90.4A90.5,90.5,0,0,1,254.91,400.575Z"/><path d="M281.827,289.778a36.3,36.3,0,1,0,36.3,36.3A36.344,36.344,0,0,0,281.827,289.778Zm0,60.6a24.3,24.3,0,1,1,24.3-24.3A24.33,24.33,0,0,1,281.827,350.381Z"/></svg>
