<svg width="40" height="40" viewBox="0 0 40 40" fill="none" xmlns="http://www.w3.org/2000/svg">
<path d="M36.875 4.01172C35.5323 4.12485 33.8189 4.4861 32.0504 5.02891C30.2819 5.57172 28.6609 6.23438 27.4859 6.89375C26.0478 7.7011 25.4702 8.37813 25.6686 9.02328C25.8465 9.60297 26.6282 9.80524 27.608 9.80524C29.0578 9.80524 30.9375 9.36258 32.1875 9.045V12.3252L25.3691 13.4393C25.0683 13.4883 24.799 13.6543 24.6201 13.9011C24.4412 14.1479 24.3671 14.4554 24.4141 14.7566L24.5354 15.5087C23.2544 14.8293 21.839 14.4416 20.3906 14.3733V13.0469H22.9721C23.1947 13.05 23.4095 12.9652 23.5698 12.8107C23.7301 12.6563 23.823 12.4448 23.8281 12.2223V11.4593C23.8234 11.2358 23.731 11.023 23.5708 10.867C23.4107 10.7109 23.1957 10.624 22.9721 10.625H16.8577C16.6355 10.6245 16.4223 10.712 16.2645 10.8684C16.1067 11.0247 16.0172 11.2372 16.0156 11.4593V12.2223C16.0166 12.3318 16.0392 12.44 16.0821 12.5407C16.1249 12.6414 16.1873 12.7327 16.2655 12.8093C16.3437 12.8859 16.4363 12.9464 16.5379 12.9871C16.6395 13.0279 16.7482 13.0482 16.8577 13.0469H19.4531V14.3732C17.9799 14.4454 16.5412 14.8446 15.2413 15.5417L15.3941 14.5161C15.4333 14.214 15.3547 13.9085 15.1748 13.6627C14.9949 13.4169 14.7273 13.2498 14.4276 13.1958L7.8125 12.0217V9.04907C9.21875 9.42485 10.5376 9.67571 11.6148 9.76649C11.916 9.7918 12.1995 9.78516 12.4486 9.78516C13.559 9.78516 14.1652 9.53125 14.327 8.98438H14.3292C14.5275 8.35938 13.9511 7.68164 12.513 6.8743C11.338 6.21461 9.71758 5.5618 7.94906 5.01922C6.18055 4.47664 4.46742 4.12 3.125 4.00688C1.48172 3.86836 0.623907 4.10696 0.425782 4.7525C0.227657 5.39805 0.805157 6.07586 2.2432 6.88321C3.4182 7.54289 5.0218 8.20578 6.79008 8.7486C6.82414 8.75907 6.87477 8.76969 6.87477 8.77985V11.8548L5.83195 11.6662C5.68491 11.6392 5.53392 11.6425 5.38819 11.6759C5.24246 11.7092 5.10506 11.7719 4.98438 11.8602C4.86212 11.9481 4.75894 12.0599 4.68107 12.1888C4.60319 12.3177 4.55223 12.461 4.53125 12.6102L4.0482 15.8393C4.00178 16.1373 4.07307 16.4417 4.24701 16.6881C4.42094 16.9345 4.68388 17.1036 4.98024 17.1596L6.875 17.5V29.2485L1.89438 33.2969C1.84707 33.3362 1.80797 33.3844 1.77933 33.4388C1.75068 33.4932 1.73304 33.5528 1.72742 33.614C1.72181 33.6752 1.72832 33.737 1.74659 33.7957C1.76487 33.8544 1.79454 33.9089 1.83391 33.9562C1.87872 34.0106 1.93506 34.0544 1.99885 34.0845C2.06264 34.1145 2.1323 34.13 2.20281 34.1298C2.30551 34.1298 2.40473 34.0927 2.48227 34.0253L6.875 30.4549V35.5565C6.875 35.6808 6.92439 35.8 7.01229 35.8879C7.1002 35.9758 7.21943 36.0252 7.34375 36.0252C7.46807 36.0252 7.5873 35.9758 7.67521 35.8879C7.76311 35.8 7.8125 35.6808 7.8125 35.5565V30.4549L12.238 34.0252C12.3246 34.0931 12.4315 34.13 12.5415 34.1298C12.612 34.1299 12.6817 34.1144 12.7455 34.0844C12.8092 34.0543 12.8656 34.0105 12.9104 33.9561C12.9864 33.8574 13.0201 33.7326 13.0043 33.609C12.9884 33.4854 12.9243 33.3732 12.8259 33.2968L7.8125 29.2485V17.6665L11.941 18.398C11.1342 19.5002 10.565 20.758 10.2694 22.0916C9.97384 23.4252 9.9583 24.8056 10.2238 26.1455C10.4893 27.4855 11.0301 28.7557 11.8119 29.8758C12.5937 30.9959 13.5995 31.9416 14.7656 32.6529L13.7198 33.9341C13.641 34.0306 13.6038 34.1544 13.6164 34.2783C13.6289 34.4022 13.6901 34.516 13.7866 34.5947C13.8831 34.6735 14.0069 34.7107 14.1307 34.6981C14.2546 34.6856 14.3685 34.6244 14.4472 34.5279L15.6059 33.112C16.9486 33.7643 18.4218 34.1033 19.9145 34.1033C21.4073 34.1033 22.8805 33.7643 24.2231 33.112L25.3816 34.5279C25.4603 34.6241 25.574 34.6851 25.6978 34.6975C25.8215 34.7099 25.945 34.6726 26.0413 34.5938C26.1375 34.5151 26.1985 34.4014 26.2108 34.2776C26.2232 34.1539 26.1859 34.0304 26.1072 33.9341L25.0592 32.6533C26.2293 31.9373 27.2376 30.9856 28.02 29.8587C28.8023 28.7319 29.3416 27.4545 29.6035 26.108C29.8654 24.7614 29.8442 23.3751 29.5412 22.0371C29.2383 20.6992 28.6602 19.439 27.8438 18.3366L32.1875 17.628V29.2485L27.1719 33.2969C27.0742 33.374 27.0111 33.4868 26.9965 33.6104C26.9818 33.734 27.0168 33.8583 27.0938 33.9562C27.1368 34.0104 27.1916 34.0542 27.2539 34.0843C27.3163 34.1143 27.3847 34.1299 27.4539 34.1298C27.5659 34.1301 27.6749 34.0934 27.7639 34.0253L32.1875 30.4549V35.5565C32.1875 35.6808 32.2369 35.8 32.3248 35.8879C32.4127 35.9758 32.5319 36.0252 32.6562 36.0252C32.7806 36.0252 32.8998 35.9758 32.9877 35.8879C33.0756 35.8 33.125 35.6808 33.125 35.5565V30.4549L37.5156 34.0252C37.5956 34.0927 37.697 34.1298 37.8016 34.1298C37.8709 34.1298 37.9392 34.1143 38.0016 34.0842C38.064 34.0541 38.1187 34.0103 38.1618 33.9561C38.2016 33.9093 38.2318 33.8551 38.2507 33.7966C38.2695 33.7381 38.2767 33.6765 38.2717 33.6153C38.2666 33.554 38.2496 33.4944 38.2215 33.4397C38.1934 33.3851 38.1548 33.3365 38.1079 33.2968L33.125 29.2485V17.4744L34.4616 17.2526C34.6098 17.2278 34.7515 17.174 34.8788 17.0944C35.0061 17.0147 35.1165 16.9107 35.2036 16.7884C35.2906 16.666 35.3527 16.5277 35.3863 16.3813C35.4199 16.2349 35.4242 16.0834 35.3991 15.9353L34.9196 13.0348C34.8951 12.886 34.8414 12.7436 34.7616 12.6156C34.6817 12.4877 34.5773 12.3769 34.4544 12.2895C34.3355 12.2013 34.2 12.1381 34.056 12.1035C33.9121 12.0689 33.7626 12.0638 33.6166 12.0884L33.125 12.1719V8.78024C33.125 8.76797 33.1835 8.75735 33.2098 8.74899C34.9783 8.20618 36.5905 7.54383 37.7655 6.88422C39.2035 6.0768 39.7766 5.39985 39.5785 4.75469C39.3804 4.10953 38.5187 3.87336 36.875 4.01172ZM16.9531 11.5625H22.8906V12.1094H16.9531V11.5625ZM2.94398 6.19907C1.84867 5.61578 1.45242 5.20867 1.35305 5.03953C1.53024 4.95516 2.08656 4.84055 3.32047 4.97219C4.55438 5.10383 6.10172 5.44235 7.67445 5.92532C9.24719 6.40828 10.7174 6.99563 11.8134 7.57922C12.9095 8.16282 13.3049 8.56961 13.4043 8.73875C13.2272 8.82313 12.6709 8.93774 11.437 8.80618C10.203 8.67461 8.6557 8.33602 7.08289 7.85305C5.51008 7.37008 4.04 6.78274 2.94398 6.19907ZM5.16273 16.2366C5.10512 16.2246 5.05411 16.1914 5.01978 16.1436C4.98544 16.0958 4.97027 16.0368 4.97727 15.9784L5.4625 12.7492C5.46606 12.7238 5.47474 12.6994 5.488 12.6775C5.50126 12.6556 5.51883 12.6366 5.53965 12.6216C5.56047 12.6067 5.58411 12.5961 5.60913 12.5905C5.63416 12.585 5.66005 12.5846 5.68524 12.5893L14.28 14.1185C14.3376 14.1306 14.3886 14.1638 14.423 14.2116C14.4573 14.2594 14.4725 14.3184 14.4655 14.3768L14.1925 16.1941C13.629 16.5966 13.109 17.0568 12.641 17.5672L5.16273 16.2366ZM24.2805 32.0234C24.2171 32.0288 24.1554 32.0471 24.0993 32.0773C24.0431 32.1074 23.9938 32.1487 23.9542 32.1986C22.7026 32.8342 21.3186 33.1654 19.9149 33.1654C18.5111 33.1654 17.1272 32.8342 15.8755 32.1986C15.8548 32.1725 15.8314 32.1487 15.8056 32.1276C15.7327 32.0677 15.6433 32.0314 15.5492 32.0235C13.8249 31.0576 12.4696 29.5472 11.6955 27.7286C10.9214 25.9101 10.7722 23.8862 11.2713 21.9739C11.7704 20.0615 12.8897 18.3687 14.4537 17.1604C16.0178 15.9521 17.9385 15.2967 19.9149 15.2967C21.8913 15.2967 23.8119 15.9521 25.376 17.1604C26.9401 18.3687 28.0593 20.0615 28.5585 21.9739C29.0576 23.8862 28.9084 25.9101 28.1343 27.7286C27.3602 29.5472 26.0049 31.0576 24.2805 32.0235V32.0234ZM33.75 13.0136C33.8047 13.0052 33.8605 13.0186 33.9055 13.0509C33.9504 13.0832 33.9809 13.1319 33.9904 13.1864L34.4655 16.0869C34.4738 16.1416 34.4603 16.1973 34.428 16.2423C34.3958 16.2872 34.3472 16.3178 34.2927 16.3274L27.1272 17.5012C26.6606 17.0015 26.1437 16.5512 25.5848 16.1574L25.3305 14.6051C25.3223 14.5504 25.3357 14.4946 25.368 14.4497C25.4003 14.4048 25.4488 14.3742 25.5033 14.3645L33.75 13.0136ZM37.0561 6.19907C35.9602 6.78274 34.4902 7.37016 32.9173 7.85305C31.3443 8.33594 29.7979 8.6743 28.5631 8.80618C27.3284 8.93805 26.773 8.82313 26.5959 8.73875C26.6952 8.56961 27.0915 8.16258 28.1866 7.57922C29.2818 6.99586 30.7526 6.40813 32.3256 5.92532C33.8987 5.4425 35.4448 5.10407 36.6796 4.97219C37.9144 4.84032 38.4698 4.95524 38.647 5.03953C38.5476 5.20867 38.1513 5.61578 37.056 6.19907H37.0561Z" fill="#FFA304"/>
<path d="M19.9148 16.2323C18.3326 16.2323 16.7859 16.7015 15.4703 17.5805C14.1547 18.4596 13.1293 19.709 12.5238 21.1708C11.9183 22.6326 11.7599 24.2411 12.0685 25.793C12.3772 27.3448 13.1392 28.7703 14.258 29.8891C15.3768 31.0079 16.8023 31.7699 18.3541 32.0786C19.906 32.3872 21.5145 32.2288 22.9763 31.6233C24.4381 31.0178 25.6875 29.9924 26.5666 28.6768C27.4456 27.3612 27.9148 25.8145 27.9148 24.2323C27.9124 22.1113 27.0688 20.0779 25.569 18.5781C24.0692 17.0783 22.0358 16.2347 19.9148 16.2323ZM19.9148 31.2948C18.518 31.2948 17.1525 30.8806 15.9911 30.1045C14.8297 29.3285 13.9245 28.2255 13.3899 26.935C12.8554 25.6445 12.7155 24.2244 12.988 22.8544C13.2605 21.4845 13.9332 20.226 14.9209 19.2383C15.9086 18.2506 17.167 17.578 18.537 17.3055C19.907 17.033 21.327 17.1728 22.6175 17.7074C23.908 18.2419 25.011 19.1471 25.7871 20.3086C26.5631 21.47 26.9773 22.8354 26.9773 24.2323C26.9753 26.1048 26.2306 27.9 24.9065 29.224C23.5825 30.5481 21.7873 31.2929 19.9148 31.2949V31.2948Z" fill="#FFA304"/>
<path d="M22.0177 22.6389C21.4568 22.6389 20.9085 22.8052 20.4422 23.1169C19.9758 23.4285 19.6123 23.8714 19.3977 24.3896C19.183 24.9078 19.1269 25.478 19.2363 26.0281C19.3457 26.5782 19.6158 27.0835 20.0124 27.4802C20.409 27.8768 20.9143 28.1469 21.4645 28.2563C22.0146 28.3657 22.5848 28.3096 23.103 28.0949C23.6212 27.8803 24.0641 27.5168 24.3757 27.0504C24.6873 26.584 24.8537 26.0357 24.8537 25.4749C24.8528 24.723 24.5537 24.0022 24.022 23.4705C23.4904 22.9389 22.7696 22.6398 22.0177 22.6389ZM22.0177 27.3733C21.6423 27.3733 21.2752 27.2619 20.963 27.0533C20.6508 26.8447 20.4075 26.5482 20.2638 26.2014C20.1201 25.8545 20.0825 25.4727 20.1558 25.1045C20.229 24.7362 20.4098 24.398 20.6753 24.1325C20.9408 23.867 21.2791 23.6861 21.6474 23.6129C22.0156 23.5396 22.3973 23.5772 22.7442 23.7209C23.0911 23.8646 23.3876 24.1079 23.5962 24.4201C23.8048 24.7323 23.9162 25.0994 23.9162 25.4749C23.9156 25.9782 23.7154 26.4608 23.3595 26.8167C23.0036 27.1727 22.5211 27.3729 22.0177 27.3735V27.3733Z" fill="#FFA304"/>
</svg>
