<svg width="40" height="40" viewBox="0 0 40 40" fill="none" xmlns="http://www.w3.org/2000/svg">
<path d="M15.3599 25.6041C15.3599 25.6041 13.4536 23.6978 13.4528 23.697C12.7784 23.0225 11.6526 23.0232 10.9787 23.697C10.2966 24.379 10.2966 25.4889 10.9787 26.171L12.8858 28.0781C13.2162 28.4085 13.6555 28.5906 14.1229 28.5906C14.5901 28.5906 15.0294 28.4085 15.3599 28.0781C16.042 27.396 16.042 26.2862 15.3599 25.6041ZM14.5313 27.2496C14.3085 27.4724 13.937 27.4721 13.7145 27.2496L11.8074 25.3424C11.5822 25.1172 11.5822 24.7508 11.8074 24.5257C12.0302 24.3028 12.4018 24.3032 12.6242 24.5257L14.5313 26.4328C14.7565 26.6579 14.7565 27.0244 14.5313 27.2496Z" fill="white"/>
<path d="M12.8182 29.37C12.8182 29.37 9.68974 26.2416 9.68693 26.2388C9.41295 25.9646 9.0385 25.8258 8.66326 25.8255C8.29022 25.8252 7.91639 25.9618 7.63951 26.2387C7.63951 26.2387 6.46663 27.4116 6.46577 27.4125C5.90889 27.9693 5.90983 28.904 6.46577 29.4599C6.46577 29.4599 9.59482 32.5889 9.59701 32.5911C10.1553 33.1494 11.0865 33.1491 11.6444 32.5911C11.6444 32.5911 12.8175 31.4181 12.8182 31.4174C13.3761 30.8594 13.3755 29.9273 12.8182 29.37ZM11.9896 30.5886C11.9896 30.5886 10.8158 31.7623 10.8158 31.7624C10.7091 31.8691 10.5321 31.8687 10.4258 31.7624L7.29451 28.6311C7.18811 28.5247 7.1885 28.3471 7.29451 28.241C7.29451 28.241 8.46826 27.0673 8.46834 27.0672C8.57475 26.961 8.75232 26.9613 8.85842 27.0673C8.85842 27.0673 11.9843 30.1932 11.9897 30.1985C12.0405 30.2495 12.0672 30.3212 12.0674 30.3935C12.0676 30.4644 12.0423 30.5358 11.9896 30.5886Z" fill="white"/>
<path d="M4.8173 29.0994C4.58855 28.8705 4.21753 28.8705 3.9887 29.0994L3.52355 29.5645C3.29472 29.7934 3.29472 30.1643 3.52355 30.3931C3.7455 30.6151 4.12441 30.6209 4.35214 30.3931L4.8173 29.928C5.04612 29.6991 5.04612 29.3281 4.8173 29.0994Z" fill="white"/>
<path d="M9.95763 34.2395C9.72881 34.0107 9.35779 34.0107 9.12896 34.2395L8.66381 34.7046C8.43498 34.9334 8.43498 35.3045 8.66381 35.5333C8.88514 35.7546 9.2656 35.7601 9.49248 35.5333L9.95763 35.0681C10.1865 34.8393 10.1865 34.4683 9.95763 34.2395Z" fill="white"/>
<path d="M7.75935 33.1116C7.73763 32.7887 7.45802 32.5447 7.13552 32.5663C6.96912 32.5774 6.80178 32.5105 6.67412 32.3828C6.54646 32.2552 6.47959 32.087 6.49068 31.9214C6.51232 31.5985 6.26818 31.3192 5.94529 31.2975C5.62287 31.276 5.34311 31.52 5.32147 31.8428C5.28764 32.3458 5.47865 32.8446 5.84545 33.2114C6.20248 33.5685 6.70842 33.7699 7.21404 33.7354C7.53693 33.7138 7.78107 33.4344 7.75935 33.1116Z" fill="white"/>
<path d="M38.3941 0.943024C38.2107 0.943024 38.0299 0.974117 37.8566 1.03568L33.5255 2.57255C33.4198 2.61005 33.3271 2.67708 33.2584 2.76568L31.1573 5.47497L18.5087 17.3288C17.9609 17.2277 17.3806 17.0257 17.2412 16.6212C16.9969 15.9128 17.9644 14.6114 18.4708 14.0927C18.4829 14.0803 18.4944 14.0675 18.5053 14.0542C19.3387 13.0385 19.28 12.3362 19.084 11.9259C18.8387 11.4124 18.263 11.1218 17.5042 11.1271C14.8985 11.1454 13.1284 13.4176 12.1464 15.5706C10.8354 18.4448 10.4831 19.2173 7.58206 20.7437C7.29566 20.8944 7.18574 21.2487 7.33636 21.5351C7.48706 21.8214 7.84136 21.9314 8.12777 21.7808C11.3831 20.0678 11.8813 18.9757 13.2126 16.057C13.9837 14.3664 15.4098 12.3178 17.5131 12.2989C17.847 12.296 18.0063 12.3886 18.0266 12.431C18.0544 12.4893 18.037 12.7717 17.6137 13.2934C17.5156 13.3961 17.0909 13.853 16.7101 14.4496C16.0828 15.4326 15.8886 16.2911 16.1328 17.0015C16.3305 17.5768 16.791 18.0006 17.5064 18.2681C17.5064 18.2681 13.8857 21.6613 13.8817 21.665C13.6438 21.888 13.638 22.2768 13.8681 22.5068C13.8681 22.5068 16.5499 25.1886 16.5506 25.1893C16.7874 25.4261 17.162 25.4061 17.3924 25.1756L18.8049 23.6686C19.1952 24.4163 19.7181 24.9236 20.3661 25.1817C21.2729 25.5429 22.3923 25.3837 23.6029 24.7213C23.8469 24.5877 24.1584 24.8416 24.0435 25.1052C23.7009 25.8922 22.5623 26.3803 21.4611 26.8524C20.6735 27.1901 19.8592 27.5392 19.2776 28.0268C19.2657 28.0367 19.2542 28.0471 19.2432 28.058C18.649 28.6423 18.1104 29.4013 17.497 30.5191C16.8999 31.6071 16.2306 33.0294 15.3443 34.9718C14.7 36.3837 13.8252 37.2916 12.744 37.6701C11.4565 38.1208 9.84472 37.863 7.95316 36.9041C5.47121 35.6459 3.41137 33.5861 2.15325 31.1042C1.19434 29.2127 0.936685 27.6008 1.38739 26.3134C1.7659 25.2323 2.67371 24.3574 4.08566 23.7131C4.81019 23.3824 5.38066 23.1192 5.8809 22.8845C6.17386 22.7471 6.29996 22.3982 6.16254 22.1052C6.02511 21.8123 5.67605 21.6862 5.38324 21.8236C4.88683 22.0564 4.31996 22.3181 3.59918 22.647C1.88567 23.4289 0.76942 24.5322 0.281374 25.9262C-0.27886 27.5265 -0.000735072 29.447 1.10809 31.6341C2.47809 34.3365 4.72098 36.5792 7.42331 37.9492C8.87862 38.687 10.2157 39.0571 11.4191 39.057C12.0242 39.057 12.5957 38.9634 13.1312 38.7759C14.5253 38.2879 15.6285 37.1716 16.4104 35.4581C18.2152 31.5029 19.041 29.9088 20.0477 28.9103C20.4975 28.5405 21.1901 28.2435 21.9228 27.9294C23.234 27.3674 24.5898 26.7861 25.118 25.573C25.6695 24.3063 24.241 23.036 23.0403 23.6931C22.4169 24.0342 21.522 24.3806 20.7997 24.0928C20.3296 23.9056 19.9506 23.4529 19.6702 22.7451L28.4989 13.3246C28.7202 13.0885 28.7081 12.7176 28.472 12.4963C28.2359 12.275 27.8651 12.2871 27.6438 12.5232L16.9511 23.9325L15.1245 22.106L31.5784 6.68598L32.3712 7.47879L29.2477 10.8117C29.0264 11.0478 29.0384 11.4186 29.2745 11.6399C29.5105 11.8611 29.8815 11.8492 30.1027 11.613L33.422 8.07129C33.4655 8.07285 33.5113 8.07395 33.5619 8.07395C34.3771 8.07395 36.3837 7.82645 37.414 5.53552C37.757 4.77294 38.514 4.28021 39.0886 4.00107C39.5197 3.79169 39.8343 3.40638 39.952 2.94388C40.2064 1.94451 39.4224 0.943024 38.3941 0.943024ZM38.5765 2.94677C37.5022 3.46857 36.7307 4.19747 36.3451 5.05466C35.6223 6.66192 34.2911 6.90192 33.5616 6.90192C33.5205 6.90192 33.4829 6.90106 33.4495 6.89981L32.3712 5.82145L34.079 3.61935C34.079 3.61935 38.2441 2.14146 38.2484 2.1399C38.7591 1.95865 39.0561 2.71388 38.5765 2.94677Z" fill="white"/>
</svg>
