<?xml version="1.0" encoding="iso-8859-1"?>
<!-- Generator: Adobe Illustrator 19.0.0, SVG Export Plug-In . SVG Version: 6.00 Build 0)  -->
<svg version="1.1" id="Capa_1" xmlns="http://www.w3.org/2000/svg" xmlns:xlink="http://www.w3.org/1999/xlink" x="0px" y="0px"
	 viewBox="0 0 512.001 512.001" style="enable-background:new 0 0 512.001 512.001;" xml:space="preserve">
<g>
	<g>
		<path d="M196.607,327.733c0,0-24.401-24.401-24.411-24.411c-8.633-8.633-23.042-8.625-31.668,0c-8.731,8.73-8.731,22.937,0,31.668
			l24.411,24.411c4.229,4.229,9.852,6.559,15.834,6.559c5.981,0,11.604-2.33,15.834-6.559
			C205.338,350.67,205.338,336.464,196.607,327.733z M186.001,348.795c-2.852,2.852-7.607,2.848-10.455,0l-24.411-24.411
			c-2.883-2.883-2.883-7.573,0-10.455c2.852-2.852,7.608-2.847,10.455,0l24.411,24.411
			C188.883,341.222,188.883,345.913,186.001,348.795z"/>
	</g>
</g>
<g>
	<g>
		<path d="M164.073,375.937c0,0-40.044-40.044-40.08-40.08c-3.507-3.509-8.3-5.286-13.103-5.29
			c-4.775-0.004-9.56,1.745-13.104,5.289c0,0-15.013,15.013-15.024,15.024c-7.128,7.128-7.116,19.092,0,26.207
			c0,0,40.052,40.052,40.08,40.08c7.146,7.146,19.066,7.142,26.207,0c0,0,15.015-15.014,15.024-15.023
			C171.215,395.001,171.207,383.07,164.073,375.937z M153.467,391.535c0,0-15.024,15.023-15.024,15.024
			c-1.366,1.366-3.632,1.361-4.993,0l-40.08-40.08c-1.362-1.362-1.357-3.636,0-4.993c0,0,15.024-15.024,15.025-15.025
			c1.362-1.36,3.635-1.356,4.993,0.001c0,0,40.011,40.011,40.08,40.08c0.651,0.652,0.992,1.57,0.995,2.495
			C154.466,389.945,154.142,390.859,153.467,391.535z"/>
	</g>
</g>
<g>
	<g>
		<path d="M61.662,372.473c-2.928-2.93-7.677-2.93-10.606,0l-5.954,5.954c-2.929,2.929-2.929,7.677,0,10.606
			c2.841,2.841,7.691,2.915,10.606,0l5.954-5.954C64.591,380.15,64.591,375.401,61.662,372.473z"/>
	</g>
</g>
<g>
	<g>
		<path d="M127.458,438.267c-2.929-2.929-7.678-2.929-10.607-0.001l-5.954,5.954c-2.929,2.929-2.929,7.678,0,10.607
			c2.833,2.833,7.703,2.903,10.607,0l5.954-5.954C130.387,445.944,130.387,441.195,127.458,438.267z"/>
	</g>
</g>
<g>
	<g>
		<path d="M99.32,423.829c-0.278-4.133-3.857-7.256-7.985-6.98c-2.13,0.143-4.272-0.714-5.906-2.348s-2.49-3.787-2.348-5.906
			c0.277-4.133-2.848-7.708-6.981-7.986c-4.127-0.276-7.708,2.848-7.985,6.98c-0.433,6.438,2.012,12.823,6.707,17.518
			c4.57,4.57,11.046,7.148,17.518,6.707C96.473,431.537,99.598,427.961,99.32,423.829z"/>
	</g>
</g>
<g>
	<g>
		<path d="M491.442,12.071c-2.348,0-4.662,0.398-6.88,1.186l-55.439,19.672c-1.353,0.48-2.539,1.338-3.418,2.472L398.81,70.08
			L236.908,221.809c-7.012-1.294-14.439-3.879-16.224-9.057c-3.127-9.067,9.257-25.725,15.739-32.365
			c0.155-0.158,0.302-0.322,0.442-0.493c10.667-13,9.916-21.99,7.407-27.242c-3.14-6.573-10.509-10.293-20.222-10.225
			c-33.353,0.235-56.01,29.319-68.579,56.877c-16.781,36.79-21.291,46.678-58.424,66.216c-3.666,1.929-5.073,6.464-3.145,10.13
			c1.929,3.665,6.464,5.073,10.13,3.145c41.668-21.926,48.045-35.905,65.086-73.265c9.87-21.639,28.124-47.861,55.047-48.103
			c4.274-0.038,6.313,1.148,6.572,1.691c0.356,0.746,0.134,4.36-5.285,11.038c-1.255,1.315-6.692,7.163-11.566,14.8
			c-8.029,12.582-10.515,23.571-7.39,32.664c2.531,7.364,8.425,12.789,17.583,16.212c0,0-46.345,43.433-46.396,43.481
			c-3.045,2.854-3.12,7.831-0.175,10.775c0,0,34.327,34.327,34.336,34.336c3.031,3.031,7.826,2.775,10.776-0.175l18.079-19.29
			c4.997,9.57,11.689,16.064,19.984,19.368c11.607,4.623,25.935,2.585,41.431-5.894c3.123-1.709,7.11,1.54,5.64,4.915
			c-4.386,10.073-18.96,16.321-33.055,22.364c-10.081,4.322-20.505,8.791-27.949,15.032c-0.152,0.127-0.299,0.26-0.44,0.399
			c-7.606,7.479-14.5,17.195-22.352,31.503c-7.642,13.926-16.209,32.132-27.554,56.994c-8.247,18.073-19.445,29.693-33.284,34.538
			c-16.48,5.769-37.111,2.47-61.323-9.804c-31.769-16.105-58.135-42.471-74.239-74.239c-12.274-24.212-15.572-44.844-9.803-61.323
			c4.845-13.838,16.465-25.037,34.538-33.284c9.274-4.232,16.576-7.602,22.979-10.605c3.75-1.759,5.364-6.225,3.605-9.975
			c-1.759-3.75-6.227-5.364-9.975-3.605c-6.354,2.98-13.61,6.33-22.836,10.54c-21.933,10.008-36.221,24.13-42.468,41.973
			c-7.171,20.484-3.611,45.066,10.582,73.062c17.536,34.59,46.245,63.297,80.835,80.833c18.628,9.444,35.742,14.181,51.146,14.18
			c7.746,0,15.061-1.198,21.915-3.598c17.844-6.247,31.966-20.535,41.974-42.468c23.102-50.627,33.672-71.031,46.558-83.812
			c5.757-4.734,14.622-8.535,24.001-12.556c16.783-7.194,34.137-14.634,40.898-30.162c7.06-16.214-11.225-32.474-26.594-24.062
			c-7.98,4.366-19.435,8.799-28.68,5.116c-6.017-2.396-10.869-8.191-14.458-17.251l113.008-120.583
			c2.832-3.022,2.678-7.769-0.344-10.602c-3.022-2.833-7.769-2.678-10.601,0.344L216.971,306.337l-23.38-23.38L404.2,85.581
			l10.148,10.148l-39.981,42.661c-2.832,3.022-2.678,7.769,0.344,10.601c3.021,2.832,7.769,2.679,10.601-0.344l42.487-45.334
			c0.556,0.02,1.143,0.034,1.79,0.034c10.435,0,36.12-3.168,49.308-32.492c4.39-9.761,14.079-16.068,21.435-19.641
			c5.517-2.68,9.544-7.612,11.051-13.532C514.639,24.89,504.604,12.071,491.442,12.071z M493.776,37.719
			c-13.75,6.679-23.626,16.009-28.561,26.981c-9.252,20.573-26.292,23.645-35.629,23.645c-0.527,0-1.008-0.011-1.435-0.027
			l-13.803-13.803l21.861-28.187c0,0,53.313-18.917,53.368-18.937C496.114,25.071,499.916,34.738,493.776,37.719z"/>
	</g>
</g>
<g>
</g>
<g>
</g>
<g>
</g>
<g>
</g>
<g>
</g>
<g>
</g>
<g>
</g>
<g>
</g>
<g>
</g>
<g>
</g>
<g>
</g>
<g>
</g>
<g>
</g>
<g>
</g>
<g>
</g>
</svg>
