<?xml version="1.0" encoding="iso-8859-1"?>
<!-- Generator: Adobe Illustrator 19.0.0, SVG Export Plug-In . SVG Version: 6.00 Build 0)  -->
<svg xmlns="http://www.w3.org/2000/svg" xmlns:xlink="http://www.w3.org/1999/xlink" version="1.1" id="Layer_1" x="0px" y="0px" viewBox="0 0 512 512" style="enable-background:new 0 0 512 512;" xml:space="preserve" width="512" height="512">
<g>
	<path d="M414.192,0h-92.664c-21.611,0-39.193,17.582-39.193,39.193v92.665c0,21.611,17.582,39.193,39.193,39.193h92.664   c21.612,0,39.194-17.582,39.194-39.193V39.193C453.387,17.582,435.805,0,414.192,0z M423.387,131.858   c0,5.069-4.125,9.193-9.194,9.193h-92.664c-5.069,0-9.193-4.124-9.193-9.193V39.193c0-5.069,4.124-9.193,9.193-9.193h92.664   c5.069,0,9.194,4.124,9.194,9.193V131.858z"/>
	<path d="M342.411,208.499c-7.197,0-13.983,1.786-19.94,4.939c-7.675-11.499-20.767-19.086-35.598-19.086   c-7.659,0-14.855,2.024-21.081,5.565c-7.793-10.583-20.338-17.461-34.458-17.461c-4.444,0-8.735,0.682-12.769,1.946v-13.352h3.563   c21.611,0,39.193-17.582,39.193-39.193V39.193C261.321,17.582,243.739,0,222.128,0h-92.664c-21.611,0-39.193,17.582-39.193,39.193   v92.665c0,21.611,17.582,39.193,39.193,39.193h3.563v92.922c-2.319-2.326-4.924-4.399-7.784-6.175   c-9.214-5.724-20.019-7.716-30.614-5.676c-11.392,0.457-21.616,5.429-28.257,13.8c-6.976,8.792-9.399,20.583-6.65,32.348   l19.712,84.362c11.244,70.386,66.15,123.048,68.488,125.261c2.786,2.637,6.476,4.106,10.312,4.106h168.712   c5.05,0,9.76-2.541,12.534-6.76c29.881-45.452,45.68-98.227,45.687-152.618l0.016-101.352c0-0.001,0-0.001,0-0.002   C385.181,227.685,365.994,208.499,342.411,208.499z M164.536,482c-12.089-12.859-47.715-54.383-55.553-104.564   c-0.058-0.369-0.129-0.735-0.214-1.098l-19.836-84.894c-0.662-2.836-0.329-5.278,0.939-6.877s3.437-2.434,6.336-2.71   c1.459-0.139,2.064-0.312,3.413-0.394c3.403-0.206,6.892,0.019,9.79,1.819s4.92,4.62,5.696,7.941l17.109,73.227   c1.429,6.114,6.514,10.692,12.744,11.471l1.202,0.15c4.271,0.534,8.563-0.791,11.789-3.638c3.226-2.847,5.073-6.943,5.073-11.246   V122.792c0-7.041,5.729-12.77,12.77-12.77s12.77,5.729,12.77,12.77v102.434v38.226c0,8.284,6.716,15,15,15s15-6.716,15-15v-38.226   c0-7.041,5.728-12.769,12.769-12.769s12.77,5.728,12.77,12.769v11.896v28.038c0,8.284,6.716,15,15,15c8.284,0,15-6.716,15-15   v-28.038c0-7.041,5.729-12.77,12.77-12.77s12.769,5.729,12.769,12.77v14.146v24.367c0,8.284,6.716,15,15,15s15-6.716,15-15v-24.367   c0-7.041,5.729-12.77,12.77-12.77s12.77,5.729,12.77,12.767l-0.016,101.353c-0.006,45.845-12.59,90.406-36.464,129.382H164.536z    M120.271,131.858V39.193c0-5.069,4.124-9.193,9.193-9.193h92.664c5.069,0,9.193,4.124,9.193,9.193v92.665   c0,5.069-4.124,9.193-9.193,9.193h-3.563v-18.26c0-23.583-19.187-42.77-42.77-42.77s-42.77,19.187-42.77,42.77v18.26h-3.563   C124.395,141.051,120.271,136.927,120.271,131.858z"/>
</g>















</svg>
