<svg width="40" height="40" viewBox="0 0 40 40" fill="none" xmlns="http://www.w3.org/2000/svg">
<g clip-path="url(#clip0)">
<path d="M35.5252 4.99544C35.2844 4.79891 34.866 4.61946 34.2419 4.881C33.779 5.07509 33.2562 5.50356 32.8079 6.05623C32.3843 6.57869 32.1118 7.10146 32.0785 7.45485C32.0679 7.57052 32.063 7.74325 32.1466 7.90865C32.269 8.15127 32.5241 8.28371 32.8445 8.28371C32.9446 8.28371 33.0511 8.27059 33.1619 8.24404C33.4753 8.16927 34.0698 7.81008 34.6081 7.37093C35.0836 6.98305 35.6772 6.40322 35.805 5.84322C35.882 5.50631 35.7825 5.2051 35.5252 4.99544ZM35.1907 5.70314C35.0357 6.38338 33.4503 7.52749 33.0154 7.63155C32.8412 7.67306 32.7258 7.64406 32.7087 7.62484C32.7075 7.6224 32.6977 7.5992 32.7057 7.51375C32.7457 7.08925 33.6319 5.81972 34.4855 5.46236C34.892 5.29177 35.069 5.43611 35.1273 5.48372C35.188 5.53316 35.2179 5.58504 35.1907 5.70314V5.70314Z" fill="white"/>
<path d="M39.9728 2.78077C39.5361 1.81733 38.6715 1.05775 37.6599 0.748609C37.5451 0.713514 37.4194 0.685438 37.2784 0.716566C37.1069 0.754102 36.9924 0.862134 36.9171 0.933851L34.7274 3.00783C34.6225 3.01362 34.5202 3.02705 34.422 3.04933C33.8031 3.18879 33.2611 3.74177 32.8253 4.18641C32.7157 4.29872 32.6116 4.40431 32.5158 4.49464C31.8515 5.11995 31.2069 5.78096 30.5996 6.45906C30.3909 6.69221 30.1956 6.92689 30.1016 7.23115C30.0494 7.39992 30.035 7.56532 30.0473 7.72767C30.0213 7.74019 29.996 7.75514 29.9734 7.77559C26.4526 10.9436 22.9763 14.1684 19.5565 17.4069C19.378 17.2199 19.1409 17.0899 18.8861 17.0441C18.4918 16.9733 18.1381 17.1054 17.9113 17.2284C17.6351 17.3782 17.4078 17.5855 17.2164 17.7677C16.9323 18.0383 16.6171 18.3637 16.4694 18.7988C16.3061 19.2792 16.4157 19.7907 16.7324 20.0952C16.4727 20.3436 16.2149 20.5921 15.9561 20.8408C15.7562 20.6845 15.4913 20.4947 15.1568 20.4752C14.6835 20.4468 14.3054 20.7791 14.0798 20.9772L13.4777 21.5064C13.2156 21.7365 12.8897 22.023 12.7413 22.4326C12.5958 22.8345 12.6846 23.371 13.0566 23.6374C12.0791 24.5856 11.1083 25.5319 10.1425 26.4768C9.90473 26.2668 9.56202 26.0465 9.15491 26.1221C8.85889 26.1774 8.64344 26.3745 8.48627 26.5186C6.58838 28.2572 4.685 30.0409 2.82801 31.8204C2.82618 31.8222 2.82465 31.8244 2.82282 31.8265C2.36841 31.8781 1.92194 32.117 1.58777 32.4902C0.937138 33.2175 0.826664 34.3494 1.32074 35.1898C1.02106 35.488 0.720463 35.7874 0.422306 36.0843C0.274296 36.2317 0.0509073 36.4545 0.00818268 36.7709C-0.046749 37.1759 0.224247 37.5092 0.354252 37.6694C0.706425 38.103 1.09339 38.5144 1.50477 38.8928C1.76783 39.1348 2.0904 39.3814 2.49018 39.3814H2.50147C2.83594 39.3775 3.10694 39.2044 3.35596 39.0274C4.55103 38.1775 5.69819 37.2373 6.76722 36.2332C7.00648 36.4243 7.31104 36.5527 7.64307 36.5918C7.72303 36.6013 7.8039 36.6058 7.8863 36.6058C8.2403 36.6058 8.62116 36.5189 9.04261 36.3428C9.40424 36.1914 9.67463 36.0272 9.89374 35.8258C10.458 35.307 10.6771 34.4568 10.4733 33.7225C10.4846 33.7241 10.4959 33.7262 10.5075 33.7274C10.5871 33.7369 10.6683 33.7418 10.7507 33.7418C11.1047 33.7415 11.4855 33.6548 11.907 33.4787C12.2686 33.3273 12.539 33.1632 12.7581 32.9617C13.2287 32.5287 13.4588 31.8649 13.4039 31.2302C14.3313 30.452 15.2618 29.6552 16.1718 28.8596C16.2777 28.7671 16.4746 28.595 16.4996 28.3283C16.5151 28.1622 16.4547 28.0182 16.4224 27.9407C16.3299 27.7194 16.2197 27.5043 16.0952 27.2989C16.8899 26.5399 17.6843 25.7791 18.478 25.0159C18.5336 25.0479 18.5928 25.0925 18.6544 25.1398C18.8137 25.2619 19.0118 25.4138 19.2819 25.4291C19.2962 25.43 19.3109 25.4303 19.3249 25.4303C19.4689 25.4303 19.5983 25.3903 19.7076 25.35C20.3762 25.1038 20.946 24.6314 21.3119 24.0201C21.5005 23.7048 21.6003 23.4094 21.6165 23.1165C21.6348 22.7902 21.5365 22.4747 21.3507 22.2427C21.5661 22.034 21.7816 21.8256 21.9967 21.6165C22.1835 21.8485 22.4725 21.854 22.6971 21.8573C22.7038 21.8576 22.7099 21.8576 22.7166 21.8576C23.1015 21.8576 23.4362 21.6782 23.656 21.5424C24.2013 21.2052 24.667 20.7382 25.0033 20.192C25.1071 20.0232 25.2163 19.8178 25.2377 19.574C25.2673 19.2383 25.1239 18.9475 24.97 18.7171C27.8994 15.8487 30.8081 12.9651 33.6813 10.08C33.7319 10.029 33.7606 9.96492 33.7692 9.89869C34.2669 9.62953 34.6725 9.24043 35.0167 8.88948C35.6936 8.20009 36.3308 7.4582 36.9104 6.68489C37.1481 6.36751 37.3876 6.02296 37.4731 5.60579C37.4835 5.55604 37.4905 5.50599 37.496 5.45595C37.5317 5.4358 37.5647 5.40986 37.5909 5.37538C38.2394 4.53126 39.006 3.78785 39.8696 3.16591C39.9917 3.07893 40.0347 2.91749 39.9728 2.78077V2.78077ZM17.0657 19.0018C17.1676 18.7015 17.4212 18.443 17.651 18.2239C17.8128 18.0695 18.0032 17.8952 18.2113 17.7823C18.4072 17.6761 18.6074 17.6343 18.775 17.6642C18.8964 17.6859 19.013 17.7503 19.0997 17.84C18.4609 18.4461 17.8243 19.0521 17.1899 19.6585C17.0132 19.5151 16.9921 19.2175 17.0657 19.0018ZM13.4588 23.1467C13.3099 23.0814 13.2693 22.8247 13.3337 22.6471C13.4271 22.3895 13.6749 22.1716 13.8934 21.9797L14.4958 21.4505C14.7024 21.2686 14.9203 21.0932 15.1202 21.1038C15.2383 21.1109 15.3622 21.1841 15.4962 21.2827C14.8361 21.9174 14.1787 22.5519 13.5238 23.1857C13.504 23.1708 13.4826 23.1571 13.4588 23.1467ZM8.91169 26.983C9.0185 26.8854 9.15125 26.7636 9.26997 26.7417C9.40058 26.7172 9.54676 26.7999 9.68958 26.9196C7.83167 28.7387 5.99634 30.549 4.18696 32.3425C4.03589 32.1665 3.83906 32.0279 3.61841 31.9373C5.35975 30.2734 7.1377 28.6084 8.91169 26.983ZM8.977 28.5275L10.2114 29.8251C9.95478 30.0348 9.73048 30.2985 9.55012 30.5933L8.2522 29.213C8.48933 28.9798 8.72736 28.746 8.9654 28.5123C8.96937 28.5172 8.97272 28.5227 8.977 28.5275V28.5275ZM6.78583 33.3045C6.33753 32.8656 5.91639 32.3932 5.53095 31.8982C5.74244 31.6889 5.9527 31.4804 6.1648 31.2708C6.55726 31.7453 6.9726 32.2061 7.40443 32.6456C7.17066 32.8262 6.961 33.0509 6.78583 33.3045ZM7.96931 32.3221C7.49537 31.8475 7.04096 31.3452 6.61494 30.8267C7.01014 30.4364 7.40534 30.0461 7.80298 29.6549L9.22755 31.1698C9.23792 31.1807 9.24952 31.1896 9.26112 31.1987C9.1717 31.4505 9.11372 31.7127 9.0951 31.9754C9.08625 32.1008 9.08686 32.2183 9.09571 32.3294C8.73041 32.2092 8.33643 32.1912 7.96931 32.3221ZM2.05744 32.9105C2.30066 32.6386 2.62201 32.4698 2.93879 32.4478C3.25098 32.4255 3.56684 32.5629 3.73652 32.789C3.08375 33.4366 2.43494 34.0814 1.78888 34.7241C1.52674 34.1391 1.62928 33.389 2.05744 32.9105ZM2.99067 38.5141C2.81611 38.6383 2.64673 38.75 2.49415 38.7518C2.49292 38.7518 2.4914 38.7518 2.49018 38.7518C2.30707 38.7518 2.11329 38.5968 1.9311 38.4293C1.5423 38.0716 1.1764 37.6825 0.843144 37.2724C0.729924 37.1329 0.616398 36.9745 0.632267 36.8555C0.646611 36.7502 0.773869 36.6232 0.866948 36.5305C2.25458 35.1477 3.66114 33.75 5.08082 32.3441C5.49036 32.8647 5.93653 33.3618 6.41199 33.8217C6.43091 33.84 6.45197 33.8544 6.47394 33.8672C6.34028 34.1773 6.25452 34.5081 6.23102 34.8398C6.206 35.1953 6.25178 35.4904 6.3711 35.7419C5.31275 36.7389 4.17566 37.6715 2.99067 38.5141V38.5141ZM9.46741 35.3623C9.30384 35.5127 9.09174 35.6397 8.79969 35.7617C8.38282 35.9363 8.02851 36.0031 7.71693 35.9665C7.36902 35.9253 7.06446 35.7321 6.94117 35.4743C6.86854 35.3229 6.84199 35.13 6.85938 34.8844C6.91584 34.0833 7.41694 33.2916 8.07764 32.9593C8.21101 32.8925 8.35566 32.8623 8.50336 32.8623C9.0124 32.8623 9.555 33.2196 9.77534 33.6517C10.0576 34.2059 9.92548 34.9414 9.46741 35.3623V35.3623ZM12.3318 32.4982C12.1682 32.6486 11.9561 32.7756 11.6641 32.8977C11.2469 33.0719 10.8929 33.1387 10.5813 33.1021C10.2334 33.0612 9.92884 32.8681 9.80555 32.6102C9.73292 32.4588 9.70637 32.2656 9.72346 32.02C9.78022 31.2189 10.2813 30.4276 10.942 30.0952C11.0754 30.0284 11.22 29.9982 11.3677 29.9982C11.8768 29.9982 12.4194 30.3555 12.6394 30.7877C12.922 31.3419 12.7896 32.077 12.3318 32.4982V32.4982ZM15.8413 28.1839C15.8584 28.2248 15.8685 28.2529 15.8715 28.2678C15.8599 28.2898 15.8215 28.3295 15.7571 28.3856C14.9246 29.1135 14.0747 29.8419 13.226 30.557C13.2174 30.5386 13.2098 30.5197 13.2009 30.5017C13.1512 30.4041 13.0911 30.3101 13.023 30.2207C13.8909 29.3988 14.7592 28.5742 15.6268 27.7469C15.7064 27.8885 15.7788 28.0344 15.8413 28.1839V28.1839ZM20.9878 23.082C20.9774 23.2675 20.9045 23.4744 20.7714 23.6969C20.4833 24.1782 20.0164 24.5654 19.49 24.7592C19.4305 24.7812 19.363 24.8038 19.3176 24.8007C19.2413 24.7962 19.1427 24.7205 19.038 24.6402C19.0075 24.617 18.9761 24.5929 18.9431 24.5688C19.5944 23.942 20.2453 23.3142 20.895 22.6853C20.9622 22.7921 20.996 22.9328 20.9878 23.082ZM24.6105 19.5191C24.6005 19.6323 24.5324 19.7562 24.4668 19.8624C24.1821 20.3253 23.7872 20.7211 23.3248 21.0071C23.0767 21.1606 22.8799 21.2293 22.7072 21.228C22.6324 21.2268 22.5222 21.225 22.4819 21.2128C22.4786 21.2064 22.4734 21.1942 22.4673 21.174C22.4664 21.1704 22.4642 21.1673 22.463 21.1636C23.1457 20.4999 23.8275 19.8352 24.5083 19.1696C24.577 19.2905 24.6203 19.4077 24.6105 19.5191V19.5191ZM24.3872 18.407C24.378 18.4125 24.3685 18.4171 24.36 18.4235C24.3286 18.4473 24.3035 18.4766 24.284 18.508C20.4034 22.305 16.4877 26.0739 12.5711 29.7809C12.0526 29.4034 11.3632 29.2355 10.7589 29.4867L9.43354 28.0933C9.42652 28.0859 9.41859 28.0808 9.41126 28.074C16.094 21.5183 23.077 14.8343 30.2407 8.38319C30.3909 8.68379 30.6076 8.96638 30.8291 9.22578C31.0665 9.5041 31.336 9.81965 31.7111 10.0156C31.9699 10.1508 32.2677 10.2182 32.5796 10.2182C32.6052 10.2182 32.6306 10.217 32.6562 10.2158C29.9264 12.9523 27.1661 15.687 24.3872 18.407V18.407ZM36.8563 5.47975C36.7968 5.76936 36.6095 6.0367 36.4065 6.30769C35.8438 7.05873 35.2249 7.77894 34.5675 8.4488C34.2251 8.79732 33.8201 9.18794 33.3428 9.41072C32.8701 9.63136 32.369 9.64876 32.0028 9.45741C31.7358 9.31764 31.5185 9.06312 31.3082 8.81685C30.9313 8.37587 30.5648 7.86439 30.7034 7.41762C30.7601 7.23421 30.9027 7.06514 31.069 6.87929C31.6641 6.21461 32.2964 5.56642 32.9476 4.95332C33.0526 4.85444 33.1607 4.74397 33.2754 4.62739C33.6529 4.24196 34.1226 3.76252 34.5602 3.66395C35.1174 3.53853 35.8938 3.81196 36.4056 4.31428C36.6201 4.52455 36.9641 4.95576 36.8563 5.47975V5.47975ZM37.3782 4.63563C37.2686 4.36464 37.091 4.10371 36.8469 3.86445C36.4804 3.50496 36.0125 3.2422 35.5383 3.10731L37.3504 1.391C37.366 1.37636 37.3956 1.34828 37.4142 1.33485C37.4252 1.33668 37.4441 1.34157 37.4758 1.35103C38.2363 1.58357 38.897 2.12221 39.2849 2.81526C38.5812 3.34718 37.9425 3.95814 37.3782 4.63563V4.63563Z" fill="white"/>
<path d="M24.9515 14.4058C24.4766 14.3317 23.9227 14.574 23.5733 15.0098C23.2541 15.4086 23.1699 15.8878 23.3423 16.3245C23.508 16.7438 23.9246 17.0413 24.3555 17.0477C24.3607 17.0477 24.3655 17.048 24.3707 17.048C24.6512 17.048 24.9445 16.9324 25.2191 16.7133C25.4645 16.5176 25.6427 16.2915 25.7486 16.0409C25.8771 15.737 25.889 15.3998 25.7806 15.1163C25.6296 14.7183 25.3351 14.4659 24.9515 14.4058ZM25.1685 15.7956C25.105 15.9463 24.9866 16.0931 24.8267 16.2207C24.7119 16.3122 24.5401 16.42 24.3649 16.4181C24.1852 16.4154 24.0015 16.2787 23.9282 16.0931C23.8089 15.791 23.9627 15.5313 24.0652 15.4037C24.2499 15.173 24.5361 15.0223 24.7742 15.0223C24.8013 15.0223 24.8282 15.0241 24.8538 15.0281C25.011 15.0528 25.1218 15.155 25.1923 15.3403C25.2429 15.4739 25.2344 15.6399 25.1685 15.7956Z" fill="white"/>
<path d="M22.6782 16.7383C22.2027 16.6638 21.6492 16.9064 21.3003 17.3425C20.9808 17.7411 20.8966 18.2202 21.069 18.6569C21.2347 19.0762 21.6513 19.3738 22.0822 19.3805H22.0975C22.3779 19.3805 22.6712 19.2648 22.9462 19.0457C23.1915 18.8501 23.3694 18.6237 23.4753 18.3734C23.6038 18.0695 23.6157 17.7326 23.5077 17.4484C23.3563 17.0508 23.0618 16.7984 22.6782 16.7383V16.7383ZM22.8952 18.1281C22.8314 18.2785 22.7133 18.4256 22.5534 18.5532C22.4387 18.6447 22.2638 18.7534 22.0917 18.7506C21.9119 18.7479 21.7282 18.6112 21.655 18.4256C21.655 18.4253 21.655 18.4253 21.655 18.4253C21.5356 18.1235 21.6894 17.8638 21.792 17.7362C21.9766 17.5055 22.2626 17.3544 22.5009 17.3544C22.5281 17.3544 22.5546 17.3566 22.5803 17.3606C22.7377 17.3853 22.8485 17.4875 22.9187 17.6727C22.9697 17.8064 22.9611 17.9724 22.8952 18.1281V18.1281Z" fill="white"/>
<path d="M20.2142 19.079C19.7394 19.0042 19.1855 19.2471 18.8364 19.6829C18.5168 20.0818 18.4326 20.5609 18.605 20.9976C18.7707 21.4169 19.1876 21.7145 19.6185 21.7209H19.6338C19.9142 21.7209 20.2072 21.6055 20.4822 21.3864C20.7275 21.1908 20.9058 20.9644 21.0113 20.7141C21.1401 20.4102 21.1517 20.0729 21.0437 19.7891C20.8923 19.3915 20.5978 19.1391 20.2142 19.079ZM20.4312 20.4688C20.3677 20.6192 20.2496 20.7663 20.0894 20.8939C19.9762 20.9842 19.8059 21.091 19.6341 21.091C19.6323 21.091 19.6301 21.091 19.628 21.091C19.4482 21.0886 19.2645 20.9519 19.1913 20.766C19.072 20.4642 19.2258 20.2045 19.3283 20.0769C19.534 19.8197 19.8657 19.6619 20.1166 19.7012C20.274 19.726 20.3848 19.8279 20.455 20.0134C20.506 20.1468 20.4971 20.3128 20.4312 20.4688V20.4688Z" fill="white"/>
<path d="M17.9352 21.2656C17.4603 21.1911 16.9064 21.4337 16.5573 21.8695C16.2381 22.2684 16.1536 22.7475 16.326 23.1842C16.492 23.6038 16.9086 23.901 17.3395 23.9075C17.3444 23.9078 17.3495 23.9078 17.3544 23.9078C17.6349 23.9078 17.9282 23.7921 18.2031 23.573C18.4485 23.3774 18.6264 23.1512 18.7323 22.9007C18.8608 22.5967 18.8727 22.2598 18.7646 21.976C18.6133 21.5781 18.3188 21.3257 17.9352 21.2656ZM18.1522 22.6556C18.0887 22.8061 17.9703 22.9529 17.8104 23.0804C17.6971 23.1708 17.5265 23.2779 17.3547 23.2779C17.3529 23.2779 17.3508 23.2779 17.3486 23.2779C17.1689 23.2751 16.9852 23.1384 16.9119 22.9529C16.7926 22.6507 16.9467 22.3913 17.0489 22.2635C17.2546 22.0065 17.5867 21.8484 17.8375 21.8878C17.9947 21.9125 18.1055 22.0148 18.176 22.2C18.2269 22.3337 18.2181 22.4997 18.1522 22.6556Z" fill="white"/>
<path d="M15.4715 23.5446C14.9966 23.4699 14.4424 23.7128 14.0933 24.1486C13.7741 24.5474 13.6899 25.0266 13.8623 25.4633C14.028 25.8826 14.4446 26.1801 14.8755 26.1868H14.8907C15.1712 26.1868 15.4642 26.0712 15.7391 25.8521C15.9848 25.6564 16.1627 25.43 16.2686 25.1798C16.3971 24.8761 16.4087 24.5389 16.3007 24.2551C16.1496 23.8571 15.8548 23.6047 15.4715 23.5446ZM15.6885 24.9347C15.6247 25.0852 15.5066 25.2319 15.3464 25.3595C15.2319 25.4511 15.0619 25.5576 14.8849 25.557C14.7052 25.5542 14.5215 25.4175 14.4479 25.2319C14.3286 24.9298 14.4827 24.6704 14.585 24.5426C14.7909 24.2856 15.1227 24.1275 15.3735 24.1669C15.5307 24.1916 15.6415 24.2938 15.712 24.4791C15.7629 24.6127 15.7544 24.7788 15.6885 24.9347Z" fill="white"/>
<path d="M12.7612 26.1932C12.2858 26.1188 11.7322 26.3614 11.3834 26.7975C11.0638 27.1963 10.9796 27.6755 11.152 28.1119C11.3177 28.5315 11.7343 28.8287 12.1652 28.8354H12.1805C12.4609 28.8354 12.7542 28.7198 13.0289 28.5007C13.2742 28.305 13.4524 28.0789 13.5583 27.8284C13.6868 27.5247 13.6984 27.1875 13.5904 26.9037C13.4393 26.5057 13.1448 26.2536 12.7612 26.1932ZM12.9782 27.5833C12.9144 27.7338 12.7963 27.8805 12.6361 28.0084C12.5217 28.0997 12.3495 28.2089 12.1747 28.2056C11.9949 28.2028 11.8112 28.0661 11.7377 27.8805C11.6186 27.5787 11.7725 27.319 11.875 27.1911C12.0596 26.9604 12.3456 26.8097 12.5839 26.8097C12.6111 26.8097 12.6376 26.8118 12.6633 26.8158C12.8207 26.8405 12.9312 26.9424 13.0017 27.128C13.0527 27.2613 13.0441 27.4274 12.9782 27.5833Z" fill="white"/>
</g>
<defs>
<clipPath id="clip0">
<rect width="40" height="40" fill="white"/>
</clipPath>
</defs>
</svg>
