<svg width="40" height="40" viewBox="0 0 40 40" fill="none" xmlns="http://www.w3.org/2000/svg">
<g clip-path="url(#clip0)">
<path d="M13.8061 31.5169L8.47305 26.1839C8.21273 25.9236 7.79075 25.9236 7.53043 26.1839L5.53053 28.1838C5.2703 28.4441 5.2703 28.8661 5.53053 29.1264L10.8636 34.4595C11.1239 34.7197 11.5459 34.7197 11.8062 34.4595L13.8061 32.4596C14.0663 32.1992 14.0663 31.7773 13.8061 31.5169ZM11.3349 33.0455L6.94446 28.6551L8.00174 27.5978L12.3922 31.9882L11.3349 33.0455Z" fill="white"/>
<path d="M39.3338 5.59961C40.2226 4.71057 40.2226 3.26948 39.3338 2.38045L37.6099 0.656535C36.7088 -0.201837 35.2925 -0.201837 34.3914 0.656535L34.0007 1.04718L33.1388 0.185226L32.1962 1.12784L33.0581 1.9898L32.0008 3.04708L31.1389 2.18512L30.1963 3.12774L31.0849 4.01636C30.8136 4.39801 30.6677 4.85465 30.6676 5.32296C30.6701 5.44229 30.6817 5.56136 30.7022 5.67894L21.8147 14.5665L21.2681 14.0198C19.4501 12.2014 16.5022 12.2011 14.6838 14.0191C14.6836 14.0193 14.6833 14.0196 14.6831 14.0198L12.8079 15.8951C11.6637 17.0399 10.2206 17.8399 8.64341 18.2036L7.73012 18.4143C2.36574 19.6517 -0.979752 25.0036 0.257683 30.368C0.67766 32.1888 1.60103 33.8548 2.92238 35.1761L4.81428 37.068C8.70765 40.9608 15.0196 40.9603 18.9123 37.0669C20.2329 35.746 21.1559 34.0808 21.5761 32.2609L21.7874 31.3469C22.1506 29.7697 22.9504 28.3265 24.0953 27.1825L25.9705 25.3073C27.7859 23.4876 27.7859 20.5419 25.9705 18.7223L25.4239 18.1756L34.3114 9.28809C34.429 9.30867 34.548 9.32025 34.6674 9.32275C35.1354 9.32267 35.5919 9.17676 35.9733 8.90544L36.8626 9.79406L37.8052 8.85144L36.9433 7.98949L38.0005 6.93221L38.8625 7.79416L39.8051 6.85155L38.9431 5.98959L39.3338 5.59961ZM25.0279 24.3646L23.1526 26.2399C21.8304 27.5603 20.9063 29.2261 20.4861 31.047L20.2755 31.9609C19.2034 36.6077 14.5673 39.5058 9.92051 38.4337C8.34326 38.0698 6.90008 37.27 5.75556 36.1254L3.86499 34.2335C0.49267 30.861 0.49267 25.3933 3.86516 22.0209C5.0096 20.8766 6.45252 20.0768 8.02944 19.7129L8.94273 19.5029C10.7637 19.0827 12.4298 18.1586 13.7505 16.8364L15.6264 14.9611C16.9238 13.6635 19.0274 13.6634 20.3251 14.9608C20.3252 14.9609 20.3254 14.961 20.3255 14.9611L20.8721 15.5078L17.7076 18.6723C17.5843 18.6623 17.4603 18.6556 17.3349 18.6556C15.1259 18.6556 13.3352 20.4463 13.3352 22.6554C13.3352 24.8644 15.1259 26.6552 17.3349 26.6552C19.544 26.6552 21.3347 24.8644 21.3347 22.6554C21.3347 22.5301 21.3281 22.4061 21.3167 22.2827L24.4812 19.1182L25.0279 19.6649C26.3231 20.9637 26.3231 23.0658 25.0279 24.3646ZM19.2202 20.7695C20.2617 21.8106 20.262 23.499 19.2209 24.5405C19.2207 24.5408 19.2204 24.541 19.2202 24.5413C18.1646 25.547 16.5053 25.547 15.4497 24.5413C14.4082 23.5001 14.4079 21.8117 15.449 20.7702C16.4902 19.7286 18.1786 19.7283 19.2202 20.7695ZM20.8901 20.8242C20.5095 20.0836 19.9067 19.4808 19.1662 19.1002L31.3342 6.93221L33.0581 8.65612L20.8901 20.8242ZM38.3912 4.65633L35.334 7.71283C34.9613 8.06957 34.3738 8.0699 34.0007 7.7135L32.2768 5.98959C31.9089 5.62128 31.9089 5.02464 32.2768 4.65633L35.334 1.59982C35.7021 1.23167 36.2989 1.23159 36.6671 1.59965C36.6672 1.59974 36.6673 1.59982 36.6673 1.59982L38.3912 3.32306C38.7591 3.69138 38.7591 4.28801 38.3912 4.65633Z" fill="white"/>
</g>
<defs>
<clipPath id="clip0">
<rect width="40" height="40" fill="white"/>
</clipPath>
</defs>
</svg>
