<?xml version="1.0" encoding="UTF-8"?>
<svg xmlns="http://www.w3.org/2000/svg" xmlns:xlink="http://www.w3.org/1999/xlink" width="100pt" height="100pt" viewBox="0 0 100 100" version="1.1">
<g id="surface8771319">
<path style=" stroke:none;fill-rule:nonzero;fill:rgb(80%,80%,80%);fill-opacity:1;" d="M 77.972656 14 C 77.898438 14.003906 77.828125 14.011719 77.757812 14.027344 L 33.757812 25.027344 C 33.3125 25.140625 33 25.539062 33 26 L 33 66.097656 C 30.125 66.191406 26.886719 66.792969 23.535156 68.082031 C 19.480469 69.644531 16.101562 71.796875 13.855469 74.105469 C 12.734375 75.257812 11.886719 76.453125 11.414062 77.679688 C 10.9375 78.90625 10.839844 80.199219 11.3125 81.367188 C 11.3125 81.371094 11.3125 81.371094 11.3125 81.371094 C 12.25 83.710938 14.957031 84.777344 18.203125 84.96875 C 21.445312 85.160156 25.414062 84.476562 29.464844 82.914062 C 33.070312 81.527344 36.136719 79.671875 38.351562 77.65625 C 40.566406 75.644531 42.003906 73.472656 42 71.257812 L 42 37.515625 L 67.605469 31.113281 C 67.851562 31.054688 68.011719 30.824219 67.988281 30.574219 C 67.960938 30.324219 67.75 30.132812 67.5 30.125 C 67.453125 30.125 67.40625 30.132812 67.363281 30.144531 L 42 36.484375 L 42 32.03125 L 70 25.03125 L 70 55.097656 C 67.125 55.191406 63.886719 55.792969 60.535156 57.082031 C 56.480469 58.644531 53.101562 60.796875 50.855469 63.105469 C 49.734375 64.257812 48.886719 65.453125 48.414062 66.679688 C 47.9375 67.90625 47.839844 69.199219 48.3125 70.367188 C 48.3125 70.371094 48.3125 70.371094 48.3125 70.371094 C 49.25 72.710938 51.957031 73.777344 55.203125 73.96875 C 58.445312 74.160156 62.414062 73.476562 66.464844 71.914062 C 70.070312 70.527344 73.136719 68.671875 75.351562 66.65625 C 77.566406 64.644531 79.003906 62.472656 79 60.257812 L 79 15 C 79 14.730469 78.890625 14.472656 78.695312 14.28125 C 78.503906 14.09375 78.242188 13.992188 77.972656 14 Z M 77 16.28125 L 77 60.257812 C 77 60.261719 77 60.261719 77 60.261719 C 77 61.539062 75.992188 63.375 74.007812 65.175781 C 72.023438 66.980469 69.144531 68.742188 65.75 70.050781 C 61.925781 71.523438 58.179688 72.140625 55.320312 71.972656 C 52.457031 71.804688 50.664062 70.863281 50.167969 69.621094 C 49.917969 69 49.933594 68.285156 50.277344 67.402344 C 50.621094 66.523438 51.300781 65.515625 52.289062 64.5 C 54.261719 62.472656 57.429688 60.421875 61.253906 58.949219 C 64.773438 57.59375 68.226562 56.960938 70.984375 57 C 71.253906 57.007812 71.511719 56.902344 71.703125 56.714844 C 71.894531 56.527344 72.003906 56.269531 72 56 L 72 23.75 C 72 23.441406 71.859375 23.152344 71.617188 22.960938 C 71.375 22.773438 71.054688 22.703125 70.757812 22.777344 L 40.757812 30.277344 C 40.3125 30.390625 40 30.789062 40 31.25 L 40 71.257812 C 40 71.261719 40 71.261719 40 71.261719 C 40 72.539062 38.992188 74.375 37.007812 76.175781 C 35.023438 77.980469 32.144531 79.742188 28.75 81.050781 C 24.925781 82.523438 21.179688 83.140625 18.320312 82.972656 C 15.457031 82.804688 13.664062 81.863281 13.167969 80.621094 C 12.917969 80 12.933594 79.285156 13.277344 78.402344 C 13.621094 77.523438 14.300781 76.515625 15.289062 75.5 C 17.261719 73.472656 20.429688 71.421875 24.253906 69.949219 C 27.773438 68.59375 31.226562 67.960938 33.984375 68 C 34.253906 68.007812 34.511719 67.902344 34.703125 67.714844 C 34.894531 67.527344 35.003906 67.269531 35 67 L 35 26.78125 Z M 73.144531 62.019531 C 73.125 62.019531 73.109375 62.019531 73.089844 62.019531 C 72.960938 62.03125 72.839844 62.089844 72.753906 62.183594 C 71.351562 63.695312 68.734375 65.683594 64.671875 67.253906 C 63.125 67.847656 61.695312 68.261719 60.402344 68.539062 C 60.128906 68.597656 59.957031 68.867188 60.015625 69.136719 C 60.074219 69.40625 60.339844 69.578125 60.613281 69.519531 C 61.957031 69.230469 63.4375 68.800781 65.03125 68.1875 C 65.03125 68.1875 65.03125 68.1875 65.03125 68.183594 C 69.222656 66.566406 71.960938 64.507812 73.488281 62.863281 C 73.625 62.722656 73.664062 62.511719 73.589844 62.332031 C 73.515625 62.148438 73.339844 62.027344 73.144531 62.019531 Z M 53.496094 68.730469 C 53.246094 68.734375 53.039062 68.921875 53.011719 69.171875 C 52.980469 69.417969 53.140625 69.652344 53.382812 69.710938 C 53.691406 69.796875 54.050781 69.867188 54.460938 69.917969 C 54.734375 69.953125 54.984375 69.761719 55.019531 69.488281 C 55.054688 69.214844 54.863281 68.960938 54.585938 68.925781 C 54.21875 68.878906 53.902344 68.816406 53.644531 68.746094 C 53.597656 68.734375 53.546875 68.726562 53.496094 68.726562 Z M 58.503906 68.867188 C 58.496094 68.867188 58.484375 68.871094 58.472656 68.871094 C 57.753906 68.960938 57.089844 69.011719 56.492188 69.019531 C 56.214844 69.027344 55.996094 69.253906 56 69.53125 C 56.007812 69.804688 56.234375 70.027344 56.507812 70.019531 C 57.144531 70.007812 57.84375 69.960938 58.601562 69.863281 C 58.859375 69.832031 59.050781 69.605469 59.039062 69.34375 C 59.027344 69.085938 58.816406 68.875 58.558594 68.867188 C 58.539062 68.867188 58.523438 68.867188 58.507812 68.867188 Z M 33.492188 70 C 33.148438 70.007812 32.800781 70.023438 32.445312 70.046875 C 32.261719 70.050781 32.09375 70.15625 32.011719 70.324219 C 31.925781 70.488281 31.941406 70.683594 32.046875 70.835938 C 32.15625 70.988281 32.335938 71.066406 32.519531 71.046875 C 32.855469 71.019531 33.183594 71.007812 33.503906 71.003906 C 33.683594 71 33.847656 70.902344 33.933594 70.746094 C 34.023438 70.589844 34.019531 70.398438 33.929688 70.246094 C 33.835938 70.089844 33.667969 70 33.492188 70.003906 Z M 30.488281 70.292969 C 30.460938 70.292969 30.433594 70.292969 30.40625 70.300781 C 28.648438 70.597656 26.800781 71.109375 24.972656 71.8125 C 24.714844 71.910156 24.585938 72.203125 24.683594 72.460938 C 24.78125 72.714844 25.074219 72.84375 25.332031 72.746094 C 27.101562 72.066406 28.890625 71.570312 30.570312 71.285156 C 30.832031 71.246094 31.015625 71.011719 30.992188 70.75 C 30.972656 70.488281 30.75 70.289062 30.488281 70.292969 Z M 32.488281 75.933594 C 32.394531 75.933594 32.300781 75.960938 32.21875 76.011719 C 31.625 76.378906 30.972656 76.75 30.261719 77.105469 C 30.09375 77.183594 29.980469 77.34375 29.96875 77.527344 C 29.957031 77.710938 30.042969 77.886719 30.199219 77.984375 C 30.355469 78.082031 30.550781 78.089844 30.710938 78 C 31.449219 77.628906 32.128906 77.246094 32.75 76.859375 C 32.941406 76.746094 33.03125 76.515625 32.96875 76.296875 C 32.910156 76.082031 32.710938 75.933594 32.488281 75.933594 Z M 28.4375 77.980469 C 28.378906 77.980469 28.316406 77.996094 28.261719 78.019531 C 28.066406 78.097656 27.871094 78.175781 27.671875 78.253906 C 27.671875 78.253906 27.671875 78.253906 27.667969 78.253906 C 27.554688 78.296875 27.441406 78.339844 27.328125 78.382812 C 27.066406 78.480469 26.9375 78.769531 27.035156 79.027344 C 27.128906 79.285156 27.417969 79.417969 27.679688 79.320312 C 27.792969 79.277344 27.910156 79.234375 28.027344 79.1875 C 28.238281 79.109375 28.441406 79.027344 28.640625 78.941406 C 28.867188 78.855469 28.996094 78.613281 28.945312 78.375 C 28.898438 78.136719 28.683594 77.96875 28.4375 77.976562 Z M 25.550781 79 C 25.503906 79 25.460938 79.007812 25.417969 79.023438 C 21.976562 80.046875 19.269531 80.144531 17.605469 79.929688 C 17.328125 79.894531 17.078125 80.089844 17.042969 80.363281 C 17.007812 80.636719 17.203125 80.886719 17.476562 80.921875 C 19.3125 81.15625 22.144531 81.039062 25.703125 79.980469 C 25.945312 79.910156 26.097656 79.671875 26.058594 79.421875 C 26.019531 79.175781 25.800781 78.992188 25.550781 79 Z M 25.550781 79 "/>
</g>
</svg>
