<svg width="24" height="24" viewBox="0 0 24 24" fill="none" xmlns="http://www.w3.org/2000/svg">
<path d="M12.3 16.5C12.3 16.6657 12.1657 16.8 12 16.8C11.8343 16.8 11.7 16.6657 11.7 16.5C11.7 16.3343 11.8343 16.2 12 16.2C12.1657 16.2 12.3 16.3343 12.3 16.5Z" fill="#3636EE"/>
<path d="M18.3 9H16.8V8.69947C16.9191 8.6104 17.0342 8.51464 17.1408 8.40697C17.1544 8.39317 17.1658 8.37817 17.1793 8.36438C17.4565 8.62956 17.8504 8.75465 18.2452 8.67549C18.6043 8.60344 18.9161 8.35781 19.0787 8.01844C19.1779 7.81112 19.2164 7.59388 19.1933 7.37761C19.7328 7.14457 20.1 6.60632 20.1 6.00001C20.1 5.53379 19.8876 5.10295 19.5174 4.81742C19.3159 4.66207 19.2 4.43706 19.2 4.20001C19.2 2.21493 17.5851 0.600006 15.6 0.600006C14.9124 0.600006 14.2728 0.941122 13.8837 1.49305C13.3507 1.14443 12.6615 1.10332 12.0382 1.40425C11.286 1.76761 10.8 2.57038 10.8 3.45001V3.5589C10.8 4.07226 10.5999 4.59683 10.221 5.07563C10.011 5.34121 9.9 5.66075 9.9 6.00001C9.9 6.60632 10.2672 7.14457 10.8065 7.37761C10.7835 7.59296 10.8215 7.80926 10.9203 8.01604C11.084 8.35982 11.4 8.60706 11.7641 8.67752C11.8409 8.69225 11.9175 8.69948 11.9933 8.69948C12.3068 8.69948 12.6029 8.57439 12.8246 8.35984C12.94 8.48158 13.0655 8.59287 13.1996 8.69399L13.1997 9.00002H12.3975C11.4825 9.00002 10.6599 9.50854 10.251 10.3266L8.7157 13.397L8.07363 11.9519C8.10819 11.9045 8.13845 11.8535 8.1639 11.7993C8.26528 11.5812 8.27613 11.337 8.1939 11.111L7.57864 9.42005C7.43561 9.02645 7.0444 8.79608 6.64528 8.83507L5.44192 6.1435C5.30933 5.84645 4.96648 5.70152 4.661 5.81296C4.35591 5.92426 4.18634 6.25573 4.27556 6.56831L5.08528 9.40813C4.95993 9.49719 4.8564 9.61451 4.78943 9.75795C4.68805 9.97598 4.6772 10.2203 4.75943 10.4462L5.37497 12.1379C5.47073 12.4006 5.67764 12.5905 5.92299 12.6769L6.96548 15.5956C7.15686 16.1315 7.57631 16.5419 8.11566 16.7219C8.3041 16.7845 8.49815 16.8148 8.69074 16.8148C9.13175 16.8148 9.56369 16.6558 9.89999 16.3672L9.90026 18.3001C9.90026 18.4656 10.0347 18.6001 10.2003 18.6001H15.0003C15.1658 18.6001 15.3003 18.4656 15.3003 18.3001V16.8001H18.6003V18.3001C18.6003 18.4656 18.7347 18.6001 18.9003 18.6001C19.0658 18.6001 19.2003 18.4656 19.2003 18.3001V16.7761C20.2164 16.6297 21.0003 15.7558 21.0003 14.7001V11.7001C21 10.2114 19.7886 9.00006 18.3 9.00006L18.3 9ZM18.3 4.8C18.4653 4.8 18.6 4.93473 18.6 5.1V5.4C18.6 5.56527 18.4653 5.7 18.3 5.7H18.0066C18.0039 5.36076 18.0024 5.04991 18.0015 4.8H18.3ZM12 5.7H11.7C11.5347 5.7 11.4 5.56527 11.4 5.4V5.1C11.4 4.93473 11.5347 4.8 11.7 4.8H12V5.7ZM15.0504 2.23337C15.1421 2.09543 15.3284 2.05819 15.4665 2.15033L15.6177 2.25118C16.0581 2.54449 16.5705 2.69985 17.1 2.69985C17.2655 2.69985 17.4 2.83431 17.4 2.99985C17.4 3.16538 17.2655 3.29985 17.1 3.29985C16.4517 3.29985 15.8241 3.10993 15.2847 2.75021L15.1335 2.64936C14.9959 2.55762 14.9586 2.37133 15.0504 2.23337L15.0504 2.23337ZM12.6 6.3V4.72207C13.2009 4.50604 13.6848 4.05847 13.9476 3.48281C14.573 3.91245 15.2797 4.21179 16.0185 4.36954C15.8281 4.39057 15.6402 4.44428 15.4657 4.5316C15.3174 4.60566 15.2574 4.78606 15.3316 4.93418C15.4057 5.08244 15.5854 5.14271 15.7342 5.06824C16.0261 4.9224 16.3741 4.9224 16.6657 5.06824C16.7088 5.08981 16.7547 5.09998 16.7997 5.09998C16.9098 5.09998 17.0157 5.03945 17.0685 4.93405C17.1426 4.78579 17.0826 4.60552 16.9344 4.53147C16.8987 4.51379 16.8619 4.49973 16.8249 4.48472C16.9565 4.49397 17.0886 4.49999 17.2209 4.49999H17.4V5.99999C17.4 6.01647 17.407 6.03093 17.4092 6.04673C17.4098 6.11879 17.4107 6.19071 17.4114 6.2637C17.4183 6.91231 17.1708 7.5237 16.7141 7.98481C16.2578 8.44591 15.6494 8.69973 15.0008 8.69973H14.9996H14.9981C13.6758 8.69906 12.6 7.62268 12.6 6.30001L12.6 6.3ZM16.2 9.05074V10.0303L15 10.7503L13.8 10.0303V9.04779C14.1675 9.20891 14.5722 9.29985 14.9982 9.29985L15 9.29972H15.0015C15.4212 9.29972 15.8264 9.21266 16.2 9.05074L16.2 9.05074ZM5.93862 11.9322L5.32309 10.2406C5.29577 10.1653 5.29912 10.084 5.33327 10.0114C5.36715 9.93882 5.42715 9.88364 5.50242 9.85605L6.63011 9.44569C6.664 9.43336 6.69855 9.42734 6.73244 9.42734C6.85511 9.42734 6.97029 9.50287 7.01476 9.62475L7.63029 11.3164C7.65761 11.3917 7.65426 11.473 7.62011 11.546C7.58623 11.6185 7.52623 11.6735 7.45096 11.701L6.32327 12.1114C6.16818 12.1679 5.99528 12.0876 5.93862 11.9322L5.93862 11.9322ZM12.9 15.5696V16.4999C12.9 16.9961 12.4962 17.3999 12 17.3999C11.5038 17.3999 11.1 16.9961 11.1 16.4999C11.1 16.0036 11.5038 15.5999 12 15.5999C12.1055 15.5999 12.2058 15.6214 12.3 15.655V14.0999C12.3 13.9343 12.4345 13.7999 12.6 13.7999H13.8C13.9655 13.7999 14.1 13.9343 14.1 14.0999C14.1 14.824 13.5837 15.4301 12.9 15.5696V15.5696ZM15.6 16.1999H14.7C14.5347 16.1999 14.4 16.0651 14.4 15.8999V15.2999C14.4 15.1346 14.5347 14.9999 14.7 14.9999H15.6V16.1999ZM20.4 14.6999C20.4 15.527 19.7271 16.1999 18.9 16.1999H16.2V14.9999H18.9C19.0655 14.9999 19.2 14.8654 19.2 14.6999V11.6999C19.2 11.5343 19.0655 11.3999 18.9 11.3999C18.7345 11.3999 18.6 11.5343 18.6 11.6999V14.3999H15.3V12.8999C15.3 12.7343 15.1655 12.5999 15 12.5999H10.2C10.0345 12.5999 9.89999 12.7343 9.89999 12.8999V15.4196L9.71249 15.6872C9.40044 16.1333 8.82148 16.3247 8.30544 16.1522C7.94184 16.031 7.65922 15.7544 7.53051 15.3935L6.55605 12.6652L7.56974 12.2962L8.42568 14.222C8.47282 14.3282 8.57689 14.3972 8.693 14.3998H8.69997C8.8134 14.3998 8.91747 14.336 8.96849 14.2339L10.788 10.5948C11.0736 10.0231 11.6298 9.6573 12.259 9.60937L12.1079 10.8177C12.0716 11.1078 12.179 11.3985 12.3953 11.595C12.5627 11.7471 12.7795 11.829 13.0013 11.829C13.0662 11.829 13.1315 11.822 13.1961 11.8077L14.9999 11.4069L16.8035 11.8078C17.0891 11.8707 17.388 11.7916 17.6046 11.5951C17.8209 11.3984 17.9283 11.1076 17.892 10.8178L17.7398 9.59971H18.2999C19.4579 9.59971 20.3999 10.5418 20.3999 11.6997L20.4 14.6999Z" fill="#3636EE"/>
<path d="M12.9 14.9486C13.1553 14.858 13.358 14.6551 13.4487 14.3999H12.9V14.9486Z" fill="#3636EE"/>
<path d="M16.5 5.70001C16.5 5.86568 16.3657 6.00001 16.2 6.00001C16.0343 6.00001 15.9 5.86568 15.9 5.70001C15.9 5.53434 16.0343 5.40001 16.2 5.40001C16.3657 5.40001 16.5 5.53434 16.5 5.70001Z" fill="#3636EE"/>
<path d="M14.1 5.70001C14.1 5.86568 13.9657 6.00001 13.8 6.00001C13.6343 6.00001 13.5 5.86568 13.5 5.70001C13.5 5.53434 13.6343 5.40001 13.8 5.40001C13.9657 5.40001 14.1 5.53434 14.1 5.70001Z" fill="#3636EE"/>
<path d="M13.8504 7.03337C13.7587 7.17105 13.7958 7.35761 13.9334 7.4495C14.2574 7.66553 14.6285 7.77347 14.9999 7.77347C15.3713 7.77347 15.7424 7.66553 16.0664 7.4495C16.204 7.35776 16.2413 7.17146 16.1494 7.03337C16.0576 6.8957 15.8714 6.8582 15.7333 6.95034C15.2878 7.24739 14.7118 7.24739 14.2659 6.95034C14.1285 6.8582 13.9422 6.89569 13.8504 7.03337H13.8504Z" fill="#3636EE"/>
<path d="M14.2659 5.06847C14.3088 5.08976 14.3547 5.09994 14.3997 5.09994C14.5098 5.09994 14.6158 5.0394 14.6685 4.934C14.7426 4.78574 14.6826 4.60548 14.5345 4.53142C14.0748 4.3016 13.5258 4.3016 13.0659 4.53142C12.9177 4.60548 12.8577 4.78589 12.9319 4.934C13.0059 5.08226 13.1859 5.14253 13.3345 5.06807C13.626 4.92235 13.9739 4.92235 14.2659 5.06847L14.2659 5.06847Z" fill="#3636EE"/>
<path d="M9.2369 6.03738C9.37284 5.66065 9.35396 5.25323 9.1832 4.89042C9.11302 4.74042 8.93396 4.67627 8.78422 4.74645L7.69818 5.25672C7.58568 5.30949 7.52113 5.4232 7.52595 5.54025C7.52742 5.57922 7.5368 5.6186 7.55421 5.6561L8.06448 6.74213L8.06475 6.7424L8.08819 6.79222C7.98855 6.80186 7.88864 6.82463 7.79301 6.86963C7.57551 6.97195 7.41079 7.15289 7.32923 7.37908C7.24766 7.60529 7.25905 7.84982 7.36137 8.06692C7.51472 8.39277 7.83924 8.58415 8.1774 8.58415C8.30544 8.58415 8.43535 8.55683 8.55869 8.49898C8.7762 8.39665 8.94091 8.21572 9.02248 7.98952C9.10404 7.76332 9.09266 7.51916 8.99074 7.30168L8.72248 6.73113C8.95658 6.55663 9.13538 6.31809 9.2369 6.0374L9.2369 6.03738ZM8.4581 7.78609C8.43105 7.86136 8.37614 7.92162 8.30355 7.95564C8.15449 8.02555 7.97476 7.96167 7.90429 7.81167C7.87014 7.73908 7.86652 7.65778 7.89344 7.58252C7.9205 7.50725 7.97541 7.44698 8.048 7.41296C8.08911 7.39381 8.13224 7.38444 8.17523 7.38444C8.288 7.38444 8.39634 7.44832 8.44737 7.55694C8.48139 7.62912 8.48527 7.71042 8.45809 7.78609L8.4581 7.78609ZM8.67226 5.83369C8.62605 5.96239 8.55279 6.0761 8.45837 6.16904L8.22493 5.67231L8.72166 5.43861C8.73492 5.57093 8.71845 5.70526 8.67224 5.83368L8.67226 5.83369Z" fill="#3636EE"/>
<path d="M10.2 2.40001V0.900006C10.2 0.734471 10.0655 0.600006 9.89999 0.600006C9.73446 0.600006 9.59999 0.734471 9.59999 0.900006V1.55517C9.50584 1.52156 9.40553 1.49999 9.29999 1.49999C8.80378 1.49999 8.39999 1.90378 8.39999 2.39999C8.39999 2.89621 8.80378 3.29999 9.29999 3.29999C9.79621 3.29999 10.2 2.89621 10.2 2.39999V2.40001ZM9.29999 2.70001C9.13473 2.70001 8.99999 2.56527 8.99999 2.40001C8.99999 2.23474 9.13473 2.10001 9.29999 2.10001C9.46526 2.10001 9.59999 2.23474 9.59999 2.40001C9.59999 2.56527 9.46526 2.70001 9.29999 2.70001Z" fill="#3636EE"/>
</svg>
