<svg width="236" height="37" viewBox="0 0 236 37" fill="none" xmlns="http://www.w3.org/2000/svg">
<path d="M35.92 36.576C34.736 36.576 33.776 36.16 33.04 35.328C32.304 34.464 31.936 33.312 31.936 31.872C31.936 30.4 32.592 26.768 33.904 20.976C35.248 15.184 35.92 11.488 35.92 9.888C35.92 8.288 35.296 7.488 34.048 7.488C32.32 7.488 30.416 8.256 28.336 9.792C28.112 11.52 27.456 14.544 26.368 18.864C25.28 23.152 24.544 26.336 24.16 28.416C23.808 30.464 23.632 32.048 23.632 33.168C23.632 34.288 23.648 34.976 23.68 35.232C22.432 35.872 20.208 36.192 17.008 36.192H16.096C16.096 33.504 16.848 28.928 18.352 22.464C19.888 15.872 20.656 11.728 20.656 10.032C20.656 8.336 20.064 7.488 18.88 7.488C17.152 7.488 15.136 8.32 12.832 9.984C12.48 11.744 11.824 14.608 10.864 18.576C8.72 27.664 7.648 33.216 7.648 35.232C6.4 35.872 4.192 36.192 1.024 36.192H0.112C0.24 34.752 1.088 30.528 2.656 23.52C4.224 16.48 5.2 11.216 5.584 7.728C5.584 7.216 5.408 6.608 5.056 5.904C4.736 5.168 4.4 4.576 4.048 4.128L3.568 3.456L3.712 2.736C5.504 2.192 8.592 1.92 12.976 1.92C13.392 2.688 13.6 3.664 13.6 4.848C13.6 5.104 13.536 5.776 13.408 6.864C17.088 3.568 20.384 1.92 23.296 1.92C24.608 1.92 25.712 2.368 26.608 3.264C27.504 4.16 28.08 5.328 28.336 6.768C32.144 3.536 35.376 1.92 38.032 1.92C39.696 1.92 41.04 2.464 42.064 3.552C43.088 4.64 43.6 6.16 43.6 8.112C43.6 10.064 42.912 13.792 41.536 19.296C40.192 24.768 39.52 28.592 39.52 30.768C39.52 31.696 39.68 32.16 40 32.16C40.288 32.16 41.072 31.84 42.352 31.2L43.024 30.912L43.984 32.688C42.608 33.872 41.216 34.816 39.808 35.52C38.432 36.224 37.136 36.576 35.92 36.576ZM8.944 17.28C8.912 17.344 8.896 17.424 8.896 17.52L8.944 17.28ZM46.3709 32.4C46.3709 31.024 46.7869 28.688 47.6189 25.392C48.4509 22.064 48.8669 20.032 48.8669 19.296C48.8669 18.528 48.2909 17.52 47.1389 16.272L47.1869 15.648C49.3629 15.2 52.2269 14.976 55.7789 14.976C55.9389 15.392 56.0189 16.144 56.0189 17.232C56.0189 18.32 55.5709 20.64 54.6749 24.192C53.7789 27.744 53.3309 29.952 53.3309 30.816C53.3309 31.68 53.6509 32.112 54.2909 32.112C55.2189 32.112 56.2909 31.776 57.5069 31.104C57.6349 30.336 57.9549 28.864 58.4669 26.688C59.6189 21.568 60.1949 17.904 60.1949 15.696C61.3149 15.248 63.3309 15.024 66.2429 15.024H67.1549C67.1549 16.528 66.7069 19.472 65.8109 23.856C64.9149 28.208 64.4669 30.768 64.4669 31.536C64.4669 32.272 64.6269 32.64 64.9469 32.64C65.1389 32.64 66.0509 32.256 67.6829 31.488L68.5949 33.024C65.7469 35.392 63.2509 36.576 61.1069 36.576C60.0829 36.576 59.2029 36.288 58.4669 35.712C57.7629 35.136 57.3629 34.384 57.2669 33.456C54.6749 35.568 52.3229 36.624 50.2109 36.624C49.0909 36.624 48.1629 36.256 47.4269 35.52C46.7229 34.784 46.3709 33.744 46.3709 32.4ZM84.772 29.712C84.772 31.728 83.876 33.376 82.084 34.656C80.324 35.936 78.308 36.576 76.036 36.576C73.764 36.576 71.956 36.096 70.612 35.136C69.3 34.176 68.644 33.328 68.644 32.592C68.644 32.144 69.204 31.424 70.324 30.432C71.444 29.408 72.388 28.784 73.156 28.56C74.756 29.744 76.068 31.616 77.092 34.176C78.276 34.08 78.868 33.52 78.868 32.496C78.868 31.024 77.572 28.944 74.98 26.256C72.388 23.536 71.092 21.376 71.092 19.776C71.092 18.176 71.812 16.944 73.252 16.08C74.692 15.184 76.42 14.736 78.436 14.736C80.484 14.736 82.02 15.104 83.044 15.84C84.068 16.544 84.58 17.52 84.58 18.768C84.58 19.984 83.604 21.68 81.652 23.856C81.876 24.08 82.164 24.384 82.516 24.768C82.868 25.12 83.332 25.808 83.908 26.832C84.484 27.856 84.772 28.816 84.772 29.712ZM80.164 22.176C81.508 21.024 82.18 19.888 82.18 18.768C82.18 17.648 81.412 17.088 79.876 17.088C79.14 17.088 78.532 17.248 78.052 17.568C77.572 17.856 77.332 18.192 77.332 18.576C77.332 19.28 78.036 20.272 79.444 21.552L80.164 22.176ZM96.9385 17.712C96.9385 19.056 96.5065 21.376 95.6425 24.672C94.7785 27.936 94.3465 30.08 94.3465 31.104C94.3465 32.096 94.4905 32.592 94.7785 32.592C94.9705 32.592 95.7065 32.288 96.9865 31.68L97.5625 31.392L98.3785 33.072C98.0905 33.328 97.7065 33.648 97.2265 34.032C96.7465 34.416 95.8505 34.944 94.5385 35.616C93.2265 36.256 92.0105 36.576 90.8905 36.576C89.7705 36.576 88.8905 36.24 88.2505 35.568C87.6105 34.864 87.2905 33.936 87.2905 32.784C87.2905 31.6 87.6905 29.52 88.4905 26.544C89.2905 23.536 89.6905 21.584 89.6905 20.688C89.6905 19.344 89.2745 18.08 88.4425 16.896L88.0105 16.32L88.0585 15.696C89.7545 15.216 92.5065 14.976 96.3145 14.976C96.7305 15.456 96.9385 16.368 96.9385 17.712ZM91.4665 9.744C90.8265 9.104 90.5065 8.256 90.5065 7.2C90.5065 6.144 90.9385 5.216 91.8025 4.416C92.6985 3.616 93.7225 3.216 94.8745 3.216C96.0265 3.216 96.9225 3.536 97.5625 4.176C98.2025 4.816 98.5225 5.664 98.5225 6.72C98.5225 7.744 98.0585 8.656 97.1305 9.456C96.2345 10.256 95.2265 10.656 94.1065 10.656C92.9865 10.656 92.1065 10.352 91.4665 9.744ZM111.121 17.136C109.841 17.136 108.817 18.208 108.049 20.352C107.281 22.464 106.897 24.736 106.897 27.168C106.897 31.008 108.081 32.928 110.449 32.928C111.217 32.928 112.033 32.752 112.897 32.4C113.761 32.016 114.449 31.648 114.961 31.296L115.681 30.72L116.785 32.208C116.529 32.56 116.017 33.024 115.249 33.6C114.481 34.176 113.761 34.656 113.089 35.04C112.417 35.424 111.553 35.776 110.497 36.096C109.441 36.416 108.401 36.576 107.377 36.576C104.881 36.576 103.009 35.76 101.761 34.128C100.513 32.496 99.8886 30.304 99.8886 27.552C99.8886 23.744 100.929 20.656 103.009 18.288C105.121 15.92 107.825 14.736 111.121 14.736C113.265 14.736 114.961 15.232 116.209 16.224C117.489 17.184 118.129 18.384 118.129 19.824C118.129 21.232 117.681 22.448 116.785 23.472C115.985 23.472 115.057 23.296 114.001 22.944C112.945 22.592 112.145 22.16 111.601 21.648L112.321 17.424C112.033 17.232 111.633 17.136 111.121 17.136ZM138.455 26.592C138.455 29.664 137.287 32.096 134.951 33.888C132.615 35.68 129.783 36.576 126.455 36.576C124.215 36.576 122.359 36.016 120.887 34.896C119.447 33.744 118.647 32.768 118.487 31.968C118.839 30.912 119.591 29.728 120.743 28.416C121.895 27.104 122.935 26.304 123.863 26.016C125.495 27.072 127.015 29.424 128.423 33.072C130.503 33.008 131.543 31.872 131.543 29.664C131.543 28.448 131.047 26.96 130.055 25.2C129.095 23.408 128.039 21.744 126.887 20.208C125.735 18.64 124.663 16.896 123.671 14.976C122.711 13.024 122.231 11.296 122.231 9.792C122.231 7.36 123.207 5.44 125.159 4.032C127.143 2.624 129.367 1.92 131.831 1.92C134.295 1.92 136.199 2.448 137.543 3.504C138.919 4.56 139.607 5.76 139.607 7.104C139.607 8.448 139.095 9.824 138.071 11.232C137.047 12.64 136.023 13.76 134.999 14.592L133.463 15.84C133.847 16.352 134.311 17.008 134.855 17.808C135.399 18.608 136.135 19.968 137.063 21.888C137.991 23.808 138.455 25.376 138.455 26.592ZM134.759 10.848C135.207 10.432 135.607 9.936 135.959 9.36C136.311 8.752 136.487 8.128 136.487 7.488C136.487 6.816 136.103 6.256 135.335 5.808C134.567 5.36 133.639 5.136 132.551 5.136C131.495 5.136 130.599 5.392 129.863 5.904C129.159 6.384 128.807 6.976 128.807 7.68C128.807 8.352 129.031 9.152 129.479 10.08C129.959 10.976 130.423 11.728 130.871 12.336L131.591 13.248C131.911 13.088 132.407 12.752 133.079 12.24C133.783 11.728 134.343 11.264 134.759 10.848ZM152.418 17.136C151.138 17.136 150.114 18.208 149.346 20.352C148.578 22.464 148.194 24.736 148.194 27.168C148.194 31.008 149.378 32.928 151.746 32.928C152.514 32.928 153.33 32.752 154.194 32.4C155.058 32.016 155.746 31.648 156.258 31.296L156.978 30.72L158.082 32.208C157.826 32.56 157.314 33.024 156.546 33.6C155.778 34.176 155.058 34.656 154.386 35.04C153.714 35.424 152.85 35.776 151.794 36.096C150.738 36.416 149.698 36.576 148.674 36.576C146.178 36.576 144.306 35.76 143.058 34.128C141.81 32.496 141.186 30.304 141.186 27.552C141.186 23.744 142.226 20.656 144.306 18.288C146.418 15.92 149.122 14.736 152.418 14.736C154.562 14.736 156.258 15.232 157.506 16.224C158.786 17.184 159.426 18.384 159.426 19.824C159.426 21.232 158.978 22.448 158.082 23.472C157.282 23.472 156.354 23.296 155.298 22.944C154.242 22.592 153.442 22.16 152.898 21.648L153.618 17.424C153.33 17.232 152.93 17.136 152.418 17.136ZM166.072 4.32C166.072 3.264 165.976 2.512 165.784 2.064C168.28 1.2 170.632 0.767999 172.84 0.767999C173.128 1.056 173.272 1.792 173.272 2.976C173.272 5.088 172.376 9.952 170.584 17.568C173.176 15.68 175.448 14.736 177.4 14.736C178.616 14.736 179.528 15.12 180.136 15.888C180.776 16.656 181.096 17.68 181.096 18.96C181.096 20.208 180.728 22.272 179.992 25.152C179.256 28 178.888 29.952 178.888 31.008C178.888 32.064 179.016 32.592 179.272 32.592C179.528 32.592 180.2 32.304 181.288 31.728L181.864 31.44L182.728 33.12C182.44 33.376 182.056 33.696 181.576 34.08C181.096 34.464 180.216 34.976 178.936 35.616C177.656 36.256 176.472 36.576 175.384 36.576C174.328 36.576 173.48 36.24 172.84 35.568C172.2 34.864 171.88 33.936 171.88 32.784C171.88 31.6 172.232 29.472 172.936 26.4C173.672 23.296 174.04 21.344 174.04 20.544C174.04 19.712 173.704 19.296 173.032 19.296C172.2 19.296 171.16 19.648 169.912 20.352C168.152 28.096 167.272 33.12 167.272 35.424C165.928 35.936 163.64 36.192 160.408 36.192C160.376 35.648 160.36 35.168 160.36 34.752C160.36 33.376 161.304 28.672 163.192 20.64C165.112 12.608 166.072 7.168 166.072 4.32ZM190.988 36.576C188.78 36.576 187.052 35.808 185.804 34.272C184.556 32.704 183.932 30.528 183.932 27.744C183.932 24.192 184.876 21.136 186.764 18.576C188.684 16.016 191.324 14.736 194.684 14.736L196.412 14.832C196.956 14.544 197.564 14.4 198.236 14.4C200.764 14.4 202.028 16.784 202.028 21.552C203.34 21.488 204.668 21.312 206.012 21.024L206.78 20.832L207.068 22.704C206.012 23.152 204.588 23.552 202.796 23.904L201.836 24.096C201.228 27.456 199.996 30.384 198.14 32.88C196.284 35.344 193.9 36.576 190.988 36.576ZM193.58 32.448C194.924 32.448 196.124 31.584 197.18 29.856C198.268 28.128 199.02 26.304 199.436 24.384C196.012 24.384 194.3 23.104 194.3 20.544C194.3 19.52 194.508 18.56 194.924 17.664L195.164 17.184C195.036 17.12 194.876 17.088 194.684 17.088C194.492 17.088 194.348 17.12 194.252 17.184C193.452 17.696 192.7 18.896 191.996 20.784C191.292 22.672 190.94 24.832 190.94 27.264C190.94 30.72 191.82 32.448 193.58 32.448ZM211.098 36.576C208.89 36.576 207.162 35.808 205.914 34.272C204.666 32.704 204.042 30.528 204.042 27.744C204.042 24.192 204.986 21.136 206.874 18.576C208.794 16.016 211.434 14.736 214.794 14.736L216.522 14.832C217.066 14.544 217.674 14.4 218.346 14.4C220.874 14.4 222.138 16.784 222.138 21.552C223.45 21.488 224.778 21.312 226.122 21.024L226.89 20.832L227.177 22.704C226.122 23.152 224.698 23.552 222.906 23.904L221.946 24.096C221.338 27.456 220.106 30.384 218.25 32.88C216.394 35.344 214.01 36.576 211.098 36.576ZM213.69 32.448C215.034 32.448 216.234 31.584 217.29 29.856C218.378 28.128 219.13 26.304 219.546 24.384C216.122 24.384 214.41 23.104 214.41 20.544C214.41 19.52 214.618 18.56 215.034 17.664L215.273 17.184C215.146 17.12 214.986 17.088 214.794 17.088C214.602 17.088 214.458 17.12 214.362 17.184C213.562 17.696 212.81 18.896 212.106 20.784C211.402 22.672 211.05 24.832 211.05 27.264C211.05 30.72 211.93 32.448 213.69 32.448ZM227.714 36.576C226.626 36.576 225.714 36.208 224.978 35.472C224.274 34.736 223.922 33.712 223.922 32.4C223.922 31.056 224.706 26.816 226.274 19.68C227.874 12.512 228.674 7.344 228.674 4.176L228.386 2.064C230.882 1.2 233.218 0.767999 235.394 0.767999C235.714 1.216 235.874 2 235.874 3.12C235.874 5.68 235.058 10.64 233.426 18C231.826 25.328 231.026 29.6 231.026 30.816C231.026 32 231.17 32.592 231.458 32.592L234.818 31.392L235.682 33.072C234.594 33.936 233.266 34.736 231.698 35.472C230.162 36.208 228.834 36.576 227.714 36.576Z" fill="white"/>
</svg>
