<svg width="40" height="40" viewBox="0 0 40 40" fill="none" xmlns="http://www.w3.org/2000/svg">
<g clip-path="url(#clip0_3_127)">
<path d="M42.5 28.196C42.5 27.9394 42.4557 27.6845 42.3687 27.4411L41.7857 25.8084V24C41.7857 23.9842 41.7843 23.9683 41.7832 23.9525C41.7888 23.8591 41.7733 23.7657 41.7377 23.6783C41.7021 23.5909 41.6472 23.5115 41.5765 23.4453L38.9285 20.974V16.0838C38.9262 14.2721 38.1541 12.5353 36.7815 11.2543C35.409 9.9733 33.5482 9.25265 31.6071 9.25044H29.3994C28.6079 9.25127 27.8389 9.00471 27.215 8.55009C26.5911 8.09547 26.1483 7.45898 25.9572 6.74211C25.5389 5.17265 24.5695 3.77914 23.2037 2.78381C21.8379 1.78849 20.1543 1.24866 18.4215 1.25043H13.8393C11.7799 1.25264 9.80544 2.01718 8.3492 3.37635C6.89296 4.73551 6.0738 6.5783 6.07144 8.50044V20.974L3.4235 23.4453C3.34708 23.5168 3.2891 23.6036 3.25394 23.6991C3.21878 23.7946 3.20736 23.8964 3.22055 23.9966C3.21663 24.0254 3.21455 24.0544 3.2143 24.0834V25.8084L2.63127 27.4409C2.51421 27.7686 2.47474 28.1161 2.5156 28.4594C2.55646 28.8028 2.67667 29.1337 2.86793 29.4295C3.05918 29.7252 3.31693 29.9787 3.62338 30.1724C3.92982 30.3661 4.27766 30.4955 4.64287 30.5515V31.9167C4.64288 32.0405 4.67981 32.1619 4.74955 32.2672C4.81928 32.3725 4.91906 32.4576 5.03769 32.513L6.46626 33.1796C6.56544 33.226 6.67482 33.2501 6.78573 33.2501V40.5834C6.78573 40.7602 6.86098 40.9298 6.99494 41.0548C7.12889 41.1798 7.31057 41.2501 7.50001 41.2501H10.3572C10.5466 41.2501 10.7283 41.1798 10.8622 41.0548C10.9962 40.9298 11.0714 40.7602 11.0714 40.5834V33.2501H33.9286V40.5834C33.9286 40.7602 34.0038 40.9298 34.1378 41.0548C34.2717 41.1798 34.4534 41.2501 34.6428 41.2501H37.5C37.6894 41.2501 37.8711 41.1798 38.0051 41.0548C38.139 40.9298 38.2143 40.7602 38.2143 40.5834V33.0639L39.8687 32.5491C40.0109 32.5049 40.1346 32.42 40.2223 32.3065C40.3099 32.193 40.3571 32.0566 40.3571 31.9167V30.5515C40.9552 30.459 41.4987 30.1715 41.891 29.7402C42.2834 29.3089 42.4991 28.7618 42.5 28.196ZM7.50001 17.9167H37.5V20.5834H7.50001V17.9167ZM7.50001 8.50003C7.50193 6.93137 8.17043 5.42748 9.35886 4.31828C10.5473 3.20907 12.1586 2.58514 13.8393 2.58335H18.4213C19.8355 2.58188 21.2095 3.02241 22.3241 3.83468C23.4388 4.64695 24.2299 5.78419 24.5714 7.06502C24.8395 8.07053 25.4605 8.96331 26.3355 9.60099C27.2106 10.2387 28.2892 10.5845 29.3994 10.5834H31.6071C33.1695 10.5851 34.6673 11.1652 35.7721 12.1964C36.8768 13.2275 37.4982 14.6256 37.5 16.0838V16.5838H7.50001V8.50003ZM7.08153 21.9167H37.9185L39.347 23.25H5.65296L7.08153 21.9167ZM36.0714 29.2501V28.5834H37.5V29.2501H36.0714ZM30.3571 29.2501V28.5834H31.7857V29.2501H30.3571ZM24.6428 29.2501V28.5834H26.0714V29.2501H24.6428ZM18.9286 29.2501V28.5834H20.3571V29.2501H18.9286ZM13.2143 29.2501V28.5834H14.6429V29.2501H13.2143ZM7.50001 29.2501V28.5834H8.92858V29.2501H7.50001ZM8.92858 24.5834V27.2501H7.50001V24.5834H8.92858ZM14.6429 24.5834V27.2501H13.2143V24.5834H14.6429ZM20.3571 24.5834V27.2501H18.9286V24.5834H20.3571ZM26.0714 24.5834V27.2501H24.6428V24.5834H26.0714ZM31.7857 24.5834V27.2501H30.3571V24.5834H31.7857ZM34.6428 27.2501H33.2143V24.5834H34.6428V27.2501ZM28.9286 27.2501H27.5V24.5834H28.9286V27.2501ZM23.2143 27.2501H21.7857V24.5834H23.2143V27.2501ZM17.5 27.2501H16.0714V24.5834H17.5V27.2501ZM11.7857 27.2501H10.3572V24.5834H11.7857V27.2501ZM10.3572 28.5834H11.7857V29.2501H10.3572V28.5834ZM16.0714 28.5834H17.5V29.2501H16.0714V28.5834ZM21.7857 28.5834H23.2143V29.2501H21.7857V28.5834ZM27.5 28.5834H28.9286V29.2501H27.5V28.5834ZM33.2143 28.5834H34.6428V29.2501H33.2143V28.5834ZM37.5 27.2501H36.0714V24.5834H37.5V27.2501ZM3.92859 28.196C3.92853 28.0827 3.9481 27.9701 3.98653 27.8626L4.60618 26.1275C4.63047 26.0596 4.64286 25.9884 4.64287 25.9167V24.5834H6.07144V29.2501H5.05796C4.75853 29.2497 4.47147 29.1386 4.25974 28.941C4.04801 28.7434 3.92892 28.4754 3.92859 28.196ZM9.64287 39.9167H8.2143V38.5834H9.64287V39.9167ZM9.64287 37.2501H8.2143V33.2501H9.64287V37.2501ZM36.7857 37.2501H35.3571V33.2501H36.7857V37.2501ZM36.7857 39.9167H35.3571V38.5834H36.7857V39.9167ZM38.9285 31.4362L37.3839 31.9167H6.95439L6.07144 31.5047V30.5834H38.9285V31.4362ZM39.942 29.2501H38.9285V24.5834H40.3571V25.9167C40.3571 25.9884 40.3695 26.0596 40.3938 26.1275L41.0135 27.8626C41.07 28.0211 41.0855 28.1898 41.0585 28.3549C41.0315 28.52 40.9629 28.6768 40.8582 28.8123C40.7536 28.9478 40.616 29.0582 40.4567 29.1343C40.2974 29.2104 40.121 29.2501 39.942 29.2501Z" fill="white"/>
<path d="M33.2143 7.91668C33.7824 7.91609 34.3271 7.70518 34.7288 7.33024C35.1305 6.95529 35.3565 6.44693 35.3571 5.91668V2.68534L38.9285 3.16151V4.58335H38.2143C37.7904 4.58335 37.3761 4.70064 37.0238 4.92041C36.6714 5.14017 36.3967 5.45253 36.2345 5.81798C36.0723 6.18343 36.0299 6.58557 36.1126 6.97353C36.1953 7.36149 36.3994 7.71786 36.699 7.99756C36.9987 8.27727 37.3805 8.46775 37.7962 8.54492C38.2119 8.62209 38.6427 8.58249 39.0343 8.43111C39.4259 8.27973 39.7605 8.02339 39.996 7.69449C40.2314 7.36559 40.3571 6.97891 40.3571 6.58335V2.58334C40.3571 2.42287 40.2951 2.26779 40.1824 2.14656C40.0698 2.02534 39.914 1.94611 39.7438 1.92342L34.7438 1.25676C34.6425 1.24325 34.5393 1.25022 34.4411 1.2772C34.343 1.30417 34.2522 1.35051 34.1748 1.41308C34.0975 1.47566 34.0355 1.55301 33.993 1.63989C33.9506 1.72678 33.9286 1.82117 33.9286 1.91667V3.91668H33.2143C32.6459 3.91668 32.1009 4.12739 31.699 4.50246C31.2972 4.87754 31.0714 5.38625 31.0714 5.91668C31.0714 6.44711 31.2972 6.95582 31.699 7.3309C32.1009 7.70597 32.6459 7.91668 33.2143 7.91668ZM38.9285 6.58335C38.9285 6.7152 38.8867 6.8441 38.8082 6.95373C38.7297 7.06336 38.6181 7.14881 38.4876 7.19927C38.3571 7.24973 38.2135 7.26293 38.0749 7.23721C37.9364 7.21148 37.8091 7.14799 37.7092 7.05475C37.6093 6.96152 37.5413 6.84273 37.5137 6.71341C37.4861 6.58409 37.5003 6.45004 37.5544 6.32823C37.6084 6.20641 37.7 6.10229 37.8174 6.02903C37.9349 5.95578 38.073 5.91668 38.2143 5.91668H38.9285V6.58335ZM33.2143 5.25001H33.9286V5.91668C33.9286 6.04853 33.8867 6.17743 33.8082 6.28706C33.7297 6.39669 33.6181 6.48214 33.4876 6.5326C33.3571 6.58306 33.2135 6.59626 33.0749 6.57054C32.9364 6.54481 32.8091 6.48132 32.7092 6.38809C32.6093 6.29485 32.5413 6.17606 32.5137 6.04674C32.4861 5.91742 32.5003 5.78338 32.5544 5.66156C32.6084 5.53974 32.7 5.43562 32.8174 5.36237C32.9349 5.28911 33.073 5.25001 33.2143 5.25001Z" fill="white"/>
<path d="M17.4787 6.74499C17.5246 6.57348 17.4956 6.39196 17.3981 6.24038C17.3007 6.08879 17.1427 5.97954 16.9589 5.93666L14.1018 5.26999C13.9965 5.24543 13.8866 5.24358 13.7804 5.26459C13.6742 5.28561 13.5746 5.32893 13.489 5.39126C13.4035 5.4536 13.3343 5.53332 13.2867 5.62435C13.2391 5.71539 13.2143 5.81536 13.2143 5.91666V7.91666H12.5C12.0762 7.91666 11.6619 8.03396 11.3095 8.25373C10.9571 8.47349 10.6825 8.78585 10.5203 9.1513C10.3581 9.51675 10.3156 9.91889 10.3983 10.3069C10.481 10.6948 10.6851 11.0512 10.9848 11.3309C11.2845 11.6106 11.6663 11.8011 12.082 11.8782C12.4976 11.9554 12.9285 11.9158 13.32 11.7644C13.7116 11.6131 14.0463 11.3567 14.2817 11.0278C14.5172 10.6989 14.6429 10.3122 14.6429 9.91667V6.77049L16.6125 7.23008C16.7963 7.27295 16.9908 7.24593 17.1532 7.15496C17.3157 7.06399 17.4327 6.91652 17.4787 6.74499ZM13.2143 9.91667C13.2143 10.0485 13.1724 10.1774 13.0939 10.2871C13.0154 10.3967 12.9039 10.4821 12.7733 10.5326C12.6428 10.583 12.4992 10.5963 12.3607 10.5705C12.2221 10.5448 12.0948 10.4813 11.9949 10.3881C11.895 10.2948 11.827 10.1761 11.7994 10.0467C11.7719 9.91741 11.786 9.78336 11.8401 9.66155C11.8942 9.53973 11.9857 9.43561 12.1032 9.36235C12.2206 9.2891 12.3587 9.25 12.5 9.25H13.2143V9.91667Z" fill="white"/>
<path d="M23.0411 9.89679C23.2243 9.93824 23.4177 9.91039 23.579 9.8193C23.7404 9.72821 23.8566 9.58128 23.9023 9.41055C23.948 9.23982 23.9195 9.05914 23.8231 8.90791C23.7267 8.75668 23.5701 8.64718 23.3875 8.60328L20.5303 7.93662C20.425 7.91205 20.3151 7.9102 20.2089 7.93122C20.1028 7.95224 20.0031 7.99557 19.9175 8.05792C19.832 8.12026 19.7628 8.19999 19.7152 8.29104C19.6676 8.38208 19.6428 8.48206 19.6428 8.58337V11.25H18.9286C18.5047 11.25 18.0904 11.3673 17.7381 11.5871C17.3857 11.8069 17.111 12.1192 16.9488 12.4847C16.7866 12.8501 16.7442 13.2523 16.8269 13.6402C16.9096 14.0282 17.1137 14.3845 17.4133 14.6643C17.713 14.944 18.0948 15.1344 18.5105 15.2116C18.9262 15.2888 19.357 15.2492 19.7486 15.0978C20.1402 14.9464 20.4748 14.6901 20.7103 14.3612C20.9457 14.0323 21.0714 13.6456 21.0714 13.25V11.4372L23.0411 11.8968C23.2243 11.9382 23.4177 11.9104 23.579 11.8193C23.7404 11.7282 23.8566 11.5813 23.9023 11.4106C23.948 11.2398 23.9195 11.0591 23.8231 10.9079C23.7267 10.7567 23.5701 10.6472 23.3875 10.6033L21.0714 10.0629V9.4372L23.0411 9.89679ZM19.6428 13.25C19.6428 13.3819 19.601 13.5108 19.5225 13.6204C19.444 13.7301 19.3324 13.8155 19.2019 13.866C19.0714 13.9164 18.9278 13.9296 18.7892 13.9039C18.6507 13.8782 18.5234 13.8147 18.4235 13.7214C18.3236 13.6282 18.2556 13.5094 18.228 13.3801C18.2004 13.2508 18.2146 13.1167 18.2686 12.9949C18.3227 12.8731 18.4143 12.769 18.5317 12.6957C18.6492 12.6225 18.7873 12.5834 18.9286 12.5834H19.6428V13.25Z" fill="white"/>
</g>
<defs>
<clipPath id="clip0_3_127">
<rect width="40" height="40" fill="white"/>
</clipPath>
</defs>
</svg>
