<?xml version="1.0"?>
<svg xmlns="http://www.w3.org/2000/svg" viewBox="0 0 512 512" width="512" height="512"><g id="outline"><path d="M480,339.351a28.614,28.614,0,0,0-1.47-9.059L472,310.7V289c0-.19-.015-.381-.028-.571a7.986,7.986,0,0,0-2.315-6.086L440,252.687V194.005a82.1,82.1,0,0,0-82-82H333.273a39.682,39.682,0,0,1-38.552-30.1,86.875,86.875,0,0,0-84.4-65.9H159a87.1,87.1,0,0,0-87,87V252.687L42.343,282.343a7.99,7.99,0,0,0-2.273,6.616A8.807,8.807,0,0,0,40,290v20.7l-6.53,19.59A28.646,28.646,0,0,0,56,367.617V384a8,8,0,0,0,4.422,7.155l16,8A7.994,7.994,0,0,0,80,400v88a8,8,0,0,0,8,8h32a8,8,0,0,0,8-8V400H384v88a8,8,0,0,0,8,8h32a8,8,0,0,0,8-8V397.766l18.53-6.177A8,8,0,0,0,456,384V367.617A28.691,28.691,0,0,0,480,339.351ZM88,216H424v32H88Zm0-113a71.081,71.081,0,0,1,71-71h51.319A70.9,70.9,0,0,1,279.2,85.78,55.658,55.658,0,0,0,333.273,128H358A66.08,66.08,0,0,1,424,194.005v6H88ZM83.313,264H428.687l16,16H67.313ZM408,352v-8h16v8Zm-64,0v-8h16v8Zm-64,0v-8h16v8Zm-64,0v-8h16v8Zm-64,0v-8h16v8Zm-64,0v-8h16v8Zm16-56v32H88V296Zm64,0v32H152V296Zm64,0v32H216V296Zm64,0v32H280V296Zm64,0v32H344V296Zm32,32H376V296h16Zm-64,0H312V296h16Zm-64,0H248V296h16Zm-64,0H184V296h16Zm-64,0H120V296h16Zm-16,16h16v8H120Zm64,0h16v8H184Zm64,0h16v8H248Zm64,0h16v8H312Zm64,0h16v8H376Zm48-16H408V296h16ZM48,339.351a12.618,12.618,0,0,1,.649-4l6.94-20.821A8,8,0,0,0,56,312V296H72v56H60.649A12.663,12.663,0,0,1,48,339.351ZM112,480H96V464h16Zm0-32H96V400h16Zm304,0H400V400h16Zm0,32H400V464h16Zm24-101.766L422.7,384H81.889L72,379.056V368H440ZM451.351,352H440V296h16v16a8,8,0,0,0,.411,2.53l6.94,20.821a12.649,12.649,0,0,1-12,16.649Z"/><path d="M376,96a24.027,24.027,0,0,0,24-24V33.224l40,5.714V56h-8a24,24,0,1,0,24,24V32a8,8,0,0,0-6.869-7.919l-56-8A8,8,0,0,0,384,24V48h-8a24,24,0,0,0,0,48Zm64-16a8,8,0,1,1-8-8h8ZM376,64h8v8a8,8,0,1,1-8-8Z"/><path d="M199.761,81.94a8,8,0,0,0-5.821-9.7l-32-8A8,8,0,0,0,152,72V96h-8a24,24,0,1,0,24,24V82.246l22.06,5.515A8,8,0,0,0,199.761,81.94ZM152,120a8,8,0,1,1-8-8h8Z"/><path d="M262.06,119.761a8,8,0,0,0,3.88-15.522l-32-8A8,8,0,0,0,224,104v32h-8a24,24,0,1,0,24,24V138.246l22.06,5.515a8,8,0,0,0,3.88-15.522L240,121.754v-7.508ZM224,160a8,8,0,1,1-8-8h8Z"/></g></svg>
