<svg width="40" height="40" viewBox="0 0 40 40" fill="none" xmlns="http://www.w3.org/2000/svg">
<path d="M37.5 26.5118C37.5 26.2713 37.4613 26.0323 37.3852 25.8041L36.875 24.2734V22.5781C36.875 22.5633 36.8738 22.5484 36.8728 22.5335C36.8778 22.446 36.8642 22.3584 36.833 22.2765C36.8019 22.1946 36.7538 22.1202 36.692 22.0581L34.375 19.7412V15.1567C34.3729 13.4582 33.6973 11.83 32.4964 10.629C31.2954 9.42807 29.6672 8.75247 27.9688 8.7504H26.037C25.3444 8.75117 24.6715 8.52003 24.1256 8.09382C23.5798 7.66762 23.1923 7.0709 23.0251 6.39884C22.659 4.92748 21.8108 3.62107 20.6157 2.68795C19.4207 1.75483 17.9475 1.24874 16.4313 1.2504H12.4219C10.6199 1.25247 8.89226 1.96923 7.61805 3.24344C6.34384 4.51766 5.62708 6.24527 5.62501 8.04728V19.7412L3.30806 22.0581C3.24119 22.1251 3.19046 22.2065 3.15969 22.296C3.12893 22.3856 3.11894 22.481 3.13048 22.5749C3.12705 22.6019 3.12522 22.6291 3.12501 22.6563V24.2734L2.61485 25.8039C2.51243 26.1111 2.4779 26.4369 2.51365 26.7588C2.5494 27.0807 2.65458 27.391 2.82193 27.6682C2.98928 27.9455 3.21481 28.1831 3.48295 28.3647C3.75109 28.5463 4.05545 28.6676 4.37501 28.7201V30C4.37501 30.1161 4.40734 30.2298 4.46835 30.3286C4.52937 30.4273 4.61667 30.5071 4.72048 30.559L5.97048 31.184C6.05726 31.2274 6.15297 31.25 6.25001 31.25V38.125C6.25001 38.2908 6.31586 38.4497 6.43307 38.567C6.55028 38.6842 6.70925 38.75 6.87501 38.75H9.37501C9.54077 38.75 9.69974 38.6842 9.81695 38.567C9.93416 38.4497 10 38.2908 10 38.125V31.25H30V38.125C30 38.2908 30.0658 38.4497 30.1831 38.567C30.3003 38.6842 30.4592 38.75 30.625 38.75H33.125C33.2908 38.75 33.4497 38.6842 33.5669 38.567C33.6842 38.4497 33.75 38.2908 33.75 38.125V31.0755L35.1977 30.5929C35.3221 30.5514 35.4303 30.4718 35.507 30.3654C35.5837 30.259 35.625 30.1312 35.625 30V28.7201C36.1483 28.6334 36.6239 28.3639 36.9672 27.9595C37.3105 27.5552 37.4993 27.0422 37.5 26.5118V26.5118ZM6.87501 16.875H33.125V19.375H6.87501V16.875ZM6.87501 8.04689C6.87668 6.57628 7.46162 5.16638 8.5015 4.1265C9.54138 3.08662 10.9513 2.50169 12.4219 2.50001H16.4312C17.6686 2.49863 18.8708 2.91163 19.8461 3.67313C20.8215 4.43463 21.5137 5.50079 21.8125 6.70157C22.047 7.64423 22.5905 8.48122 23.3561 9.07904C24.1218 9.67686 25.0656 10.0011 26.037 10H27.9688C29.3358 10.0017 30.6464 10.5455 31.6131 11.5122C32.5797 12.4789 33.1234 13.7896 33.125 15.1567V15.6254H6.87501V8.04689ZM6.50884 20.625H33.4912L34.7412 21.875H5.25884L6.50884 20.625ZM31.875 27.5V26.875H33.125V27.5H31.875ZM26.875 27.5V26.875H28.125V27.5H26.875ZM21.875 27.5V26.875H23.125V27.5H21.875ZM16.875 27.5V26.875H18.125V27.5H16.875ZM11.875 27.5V26.875H13.125V27.5H11.875ZM6.87501 27.5V26.875H8.12501V27.5H6.87501ZM8.12501 23.125V25.625H6.87501V23.125H8.12501ZM13.125 23.125V25.625H11.875V23.125H13.125ZM18.125 23.125V25.625H16.875V23.125H18.125ZM23.125 23.125V25.625H21.875V23.125H23.125ZM28.125 23.125V25.625H26.875V23.125H28.125ZM30.625 25.625H29.375V23.125H30.625V25.625ZM25.625 25.625H24.375V23.125H25.625V25.625ZM20.625 25.625H19.375V23.125H20.625V25.625ZM15.625 25.625H14.375V23.125H15.625V25.625ZM10.625 25.625H9.37501V23.125H10.625V25.625ZM9.37501 26.875H10.625V27.5H9.37501V26.875ZM14.375 26.875H15.625V27.5H14.375V26.875ZM19.375 26.875H20.625V27.5H19.375V26.875ZM24.375 26.875H25.625V27.5H24.375V26.875ZM29.375 26.875H30.625V27.5H29.375V26.875ZM33.125 25.625H31.875V23.125H33.125V25.625ZM3.75001 26.5118C3.74997 26.4056 3.76709 26.3001 3.80071 26.1993L4.3429 24.5727C4.36416 24.5089 4.375 24.4422 4.37501 24.375V23.125H5.62501V27.5H4.73821C4.47621 27.4997 4.22503 27.3955 4.03977 27.2103C3.85451 27.025 3.7503 26.7738 3.75001 26.5118ZM8.75001 37.5H7.50001V36.25H8.75001V37.5ZM8.75001 35H7.50001V31.25H8.75001V35ZM32.5 35H31.25V31.25H32.5V35ZM32.5 37.5H31.25V36.25H32.5V37.5ZM34.375 29.5495L33.0234 30H6.39759L5.62501 29.6138V28.75H34.375V29.5495ZM35.2618 27.5H34.375V23.125H35.625V24.375C35.625 24.4422 35.6359 24.5089 35.6571 24.5727L36.1993 26.1993C36.2488 26.3479 36.2623 26.506 36.2387 26.6608C36.2151 26.8156 36.155 26.9626 36.0635 27.0896C35.9719 27.2166 35.8515 27.3201 35.7121 27.3915C35.5727 27.4628 35.4184 27.5 35.2618 27.5V27.5Z" fill="white"/>
<path d="M29.375 7.50001C29.8721 7.49945 30.3487 7.30173 30.7002 6.95022C31.0517 6.59871 31.2494 6.12212 31.25 5.62501V2.59564L34.375 3.04204V4.37501H33.75C33.3792 4.37501 33.0166 4.48498 32.7083 4.69101C32.4 4.89703 32.1596 5.18987 32.0177 5.53248C31.8758 5.87509 31.8387 6.25209 31.911 6.61581C31.9834 6.97952 32.162 7.31361 32.4242 7.57584C32.6864 7.83806 33.0205 8.01664 33.3842 8.08898C33.7479 8.16133 34.1249 8.1242 34.4675 7.98229C34.8101 7.84037 35.103 7.60005 35.309 7.29171C35.515 6.98336 35.625 6.62085 35.625 6.25001V2.50001C35.625 2.34957 35.5707 2.20418 35.4721 2.09053C35.3736 1.97688 35.2373 1.90261 35.0884 1.88134L30.7134 1.25634C30.6247 1.24368 30.5344 1.25021 30.4485 1.2755C30.3626 1.30079 30.2831 1.34423 30.2155 1.4029C30.1479 1.46156 30.0936 1.53407 30.0564 1.61553C30.0193 1.69698 30 1.78547 30 1.87501V3.75001H29.375C28.8777 3.75001 28.4008 3.94755 28.0492 4.29919C27.6975 4.65082 27.5 5.12773 27.5 5.62501C27.5 6.12229 27.6975 6.59921 28.0492 6.95084C28.4008 7.30247 28.8777 7.50001 29.375 7.50001ZM34.375 6.25001C34.375 6.37362 34.3383 6.49446 34.2697 6.59724C34.201 6.70002 34.1034 6.78013 33.9892 6.82744C33.875 6.87474 33.7493 6.88712 33.6281 6.863C33.5068 6.83889 33.3955 6.77936 33.3081 6.69195C33.2206 6.60454 33.1611 6.49318 33.137 6.37194C33.1129 6.2507 33.1253 6.12504 33.1726 6.01083C33.2199 5.89663 33.3 5.79902 33.4028 5.73034C33.5056 5.66167 33.6264 5.62501 33.75 5.62501H34.375V6.25001ZM29.375 5.00001H30V5.62501C30 5.74862 29.9633 5.86946 29.8947 5.97224C29.826 6.07502 29.7284 6.15513 29.6142 6.20244C29.5 6.24974 29.3743 6.26212 29.2531 6.238C29.1318 6.21389 29.0205 6.15436 28.9331 6.06695C28.8456 5.97954 28.7861 5.86818 28.762 5.74694C28.7379 5.6257 28.7503 5.50004 28.7976 5.38583C28.8449 5.27163 28.925 5.17402 29.0278 5.10534C29.1306 5.03667 29.2514 5.00001 29.375 5.00001Z" fill="white"/>
<path d="M15.6063 6.40156C15.6465 6.24076 15.6212 6.0706 15.5359 5.92848C15.4506 5.78637 15.3124 5.68395 15.1516 5.64375L12.6516 5.01875C12.5594 4.99572 12.4633 4.99399 12.3704 5.01369C12.2774 5.03339 12.1903 5.074 12.1154 5.13244C12.0405 5.19088 11.98 5.26562 11.9383 5.35096C11.8967 5.43631 11.875 5.53003 11.875 5.625V7.5H11.25C10.8792 7.5 10.5166 7.60997 10.2083 7.81599C9.89997 8.02202 9.65964 8.31486 9.51773 8.65747C9.37581 9.00008 9.33868 9.37708 9.41103 9.7408C9.48338 10.1045 9.66195 10.4386 9.92418 10.7008C10.1864 10.9631 10.5205 11.1416 10.8842 11.214C11.2479 11.2863 11.6249 11.2492 11.9675 11.1073C12.3101 10.9654 12.603 10.725 12.809 10.4167C13.015 10.1084 13.125 9.74584 13.125 9.375V6.42547L14.8484 6.85633C15.0092 6.89652 15.1794 6.87119 15.3216 6.7859C15.4637 6.70062 15.5661 6.56237 15.6063 6.40156ZM11.875 9.375C11.875 9.49862 11.8383 9.61945 11.7697 9.72223C11.701 9.82501 11.6034 9.90512 11.4892 9.95243C11.375 9.99973 11.2493 10.0121 11.1281 9.98799C11.0068 9.96388 10.8955 9.90435 10.8081 9.81694C10.7207 9.72954 10.6611 9.61817 10.637 9.49693C10.6129 9.37569 10.6253 9.25003 10.6726 9.13582C10.7199 9.02162 10.8 8.92401 10.9028 8.85533C11.0056 8.78666 11.1264 8.75 11.25 8.75H11.875V9.375Z" fill="white"/>
<path d="M20.4734 9.35634C20.6338 9.39521 20.803 9.36909 20.9442 9.2837C21.0853 9.1983 21.187 9.06056 21.227 8.9005C21.267 8.74043 21.2421 8.57105 21.1577 8.42927C21.0733 8.2875 20.9363 8.18484 20.7766 8.14369L18.2766 7.51869C18.1844 7.49565 18.0882 7.49392 17.9953 7.51363C17.9024 7.53333 17.8152 7.57395 17.7404 7.6324C17.6655 7.69085 17.605 7.7656 17.5633 7.85095C17.5217 7.93631 17.5 8.03004 17.5 8.12501V10.625H16.875C16.5042 10.625 16.1416 10.735 15.8333 10.941C15.525 11.147 15.2846 11.4399 15.1427 11.7825C15.0008 12.1251 14.9637 12.5021 15.036 12.8658C15.1084 13.2295 15.287 13.5636 15.5492 13.8258C15.8114 14.0881 16.1455 14.2666 16.5092 14.339C16.8729 14.4113 17.2499 14.3742 17.5925 14.2323C17.9351 14.0904 18.228 13.85 18.434 13.5417C18.64 13.2334 18.75 12.8709 18.75 12.5V10.8005L20.4734 11.2313C20.6338 11.2702 20.803 11.2441 20.9442 11.1587C21.0853 11.0733 21.187 10.9356 21.227 10.7755C21.267 10.6154 21.2421 10.446 21.1577 10.3043C21.0733 10.1625 20.9363 10.0598 20.7766 10.0187L18.75 9.51205V8.92548L20.4734 9.35634ZM17.5 12.5C17.5 12.6236 17.4633 12.7445 17.3947 12.8472C17.326 12.95 17.2284 13.0301 17.1142 13.0774C17 13.1247 16.8743 13.1371 16.7531 13.113C16.6318 13.0889 16.5205 13.0294 16.4331 12.942C16.3457 12.8545 16.2861 12.7432 16.262 12.6219C16.2379 12.5007 16.2503 12.375 16.2976 12.2608C16.3449 12.1466 16.425 12.049 16.5278 11.9803C16.6305 11.9117 16.7514 11.875 16.875 11.875H17.5V12.5Z" fill="white"/>
</svg>
