<?xml version="1.0"?>
<svg xmlns="http://www.w3.org/2000/svg" xmlns:xlink="http://www.w3.org/1999/xlink" xmlns:svgjs="http://svgjs.com/svgjs" version="1.1" width="512" height="512" x="0" y="0" viewBox="0 0 512 512" style="enable-background:new 0 0 512 512" xml:space="preserve" class=""><g><g xmlns="http://www.w3.org/2000/svg"><path d="m96.122 151.431h319.906v208.241h-319.906z" fill="#ffffff" data-original="#fedba6" style="" class=""/><path d="m416.028 329.68v29.991h-319.906v-208.239h69.979v148.256c0 16.564 13.428 29.991 29.991 29.991h219.936z" fill="#ffffff" data-original="#fece85" style="" class=""/><path d="m416.028 151.432v41.038l-159.953 149.386-159.953-149.386v-41.038z" fill="#ffffff" data-original="#fece85" style="" class=""/><path d="m96.122 151.431 159.953 149.39 159.953-149.39z" fill="#ffffff" data-original="#fedba6" style="" class=""/><path d="m96.122 151.431 159.953 149.39 159.953-149.39z" fill="#ffffff" data-original="#fee4b8" style="" class=""/><circle cx="62.482" cy="449.235" fill="#f5f8f9" r="54.984" data-original="#f5f8f9" style="" class=""/><path d="m62.482 504.219c-11.647 0-22.443-3.619-31.331-9.797 1.09-16.355 14.696-29.281 31.331-29.281 8.677 0 16.515 3.509 22.203 9.197 5.218 5.209 8.607 12.257 9.127 20.084-8.887 6.178-19.684 9.797-31.33 9.797" fill="#fdfdfd" data-original="#f07281" style="" class=""/><circle cx="450.814" cy="449.235" fill="#f5f8f9" r="54.984" data-original="#f5f8f9" style="" class=""/><path d="m482.145 494.421c-8.887 6.178-19.684 9.797-31.331 9.797s-22.443-3.619-31.331-9.797c1.09-16.355 14.696-29.281 31.331-29.281 8.677 0 16.515 3.509 22.203 9.197 5.219 5.209 8.608 12.257 9.128 20.084z" fill="#f7f7f7" data-original="#8ac9fe" style="" class=""/><circle cx="450.256" cy="62.765" fill="#f5f8f9" r="54.984" data-original="#f5f8f9" style="" class=""/><path d="m481.587 107.952c-8.887 6.178-19.684 9.797-31.331 9.797s-22.443-3.619-31.331-9.797c1.09-16.355 14.696-29.281 31.331-29.281 8.677 0 16.515 3.509 22.204 9.197 5.218 5.208 8.607 12.256 9.127 20.084z" fill="#ffffff" data-original="#fee97d" style="" class=""/><circle cx="62.482" cy="63.026" fill="#f5f8f9" r="54.984" data-original="#f5f8f9" style="" class=""/><path d="m93.813 108.212c-8.887 6.178-19.684 9.797-31.331 9.797s-22.443-3.619-31.331-9.797c1.09-16.355 14.696-29.281 31.331-29.281 8.677 0 16.515 3.509 22.203 9.197 5.219 5.209 8.608 12.257 9.128 20.084z" fill="#f7f7f7" data-original="#8ac9fe" style="" class=""/><path d="m166.102 151.432v65.361l-69.98-65.361z" fill="#ffffff" data-original="#fece85" style="" class=""/><path d="m166.102 151.432v65.361l-69.98-65.361z" fill="#ffffff" data-original="#fedba6" style="" class=""/><circle cx="62.482" cy="58.15" fill="#ffffff" r="20.779" data-original="#fff3de" style="" class=""/><circle cx="450.814" cy="444.359" fill="#ffffff" r="20.779" data-original="#ffeee6" style="" class=""/><circle cx="450.256" cy="57.89" fill="#ffffff" r="20.779" data-original="#f1b0a2" style="" class=""/><circle cx="62.482" cy="444.359" fill="#ffffff" r="20.779" data-original="#f1b0a2" style="" class=""/><path d="m449.66 386.391c-14.49 0-27.83 4.983-38.427 13.307l-32.797-32.798h36.524c4.142 0 7.5-3.357 7.5-7.5v-207.7c0-4.143-3.358-7.5-7.5-7.5h-36.181l31.897-31.897c10.598 8.324 23.937 13.307 38.427 13.307 34.375 0 62.34-27.966 62.34-62.34 0-34.375-27.966-62.341-62.34-62.341s-62.34 27.966-62.34 62.341c0 14.489 4.983 27.829 13.306 38.426l-42.504 42.504h-92.785c-4.142 0-7.5 3.357-7.5 7.5s3.358 7.5 7.5 7.5h131.162l-140.512 131.238-140.521-131.238h117.191c4.142 0 7.5-3.357 7.5-7.5s-3.358-7.5-7.5-7.5h-78.482l-42.244-42.244c8.324-10.598 13.307-23.937 13.307-38.427 0-34.375-27.966-62.341-62.34-62.341s-62.341 27.966-62.341 62.341c0 34.374 27.966 62.34 62.34 62.34 14.49 0 27.829-4.983 38.427-13.306l31.637 31.637h-36.514c-4.142 0-7.5 3.357-7.5 7.5v87.51c0 4.143 3.358 7.5 7.5 7.5s7.5-3.357 7.5-7.5v-70.243l84.567 78.98-84.567 92.187v-68.234c0-4.143-3.358-7.5-7.5-7.5s-7.5 3.357-7.5 7.5v87.5c0 4.143 3.358 7.5 7.5 7.5h37.674l-32.796 32.797c-10.598-8.324-23.937-13.307-38.427-13.307-34.375.001-62.341 27.966-62.341 62.34 0 34.375 27.966 62.341 62.34 62.341s62.34-27.966 62.34-62.341c0-14.489-4.983-27.829-13.306-38.426l43.403-43.404h149.283c4.142 0 7.5-3.357 7.5-7.5s-3.358-7.5-7.5-7.5h-191.108l85.969-93.714 51.39 47.995c1.441 1.346 3.28 2.019 5.119 2.019s3.678-.673 5.119-2.019l51.387-47.995 85.969 93.714h-61.155c-4.142 0-7.5 3.357-7.5 7.5s3.358 7.5 7.5 7.5h20.473l43.403 43.404c-8.323 10.597-13.306 23.937-13.306 38.426 0 34.375 27.966 62.341 62.34 62.341s62.34-27.966 62.34-62.341c0-34.374-27.966-62.339-62.34-62.339zm-23.641-281.813c2.631-10.345 12.054-17.945 23.084-17.945 6.362 0 12.343 2.478 16.848 6.982 3.052 3.046 5.194 6.839 6.24 10.96-6.835 3.836-14.708 6.034-23.088 6.034-8.378 0-16.25-2.197-23.084-6.031zm23.084-32.946c-7.292 0-13.225-5.933-13.225-13.226 0-7.292 5.933-13.225 13.225-13.225s13.225 5.933 13.225 13.225c0 7.293-5.932 13.226-13.225 13.226zm0-55.703c26.104 0 47.34 21.237 47.34 47.341 0 12.009-4.503 22.981-11.899 31.336-1.918-4.288-4.612-8.228-7.992-11.602-2.076-2.076-4.352-3.878-6.775-5.41 4.681-5.04 7.551-11.784 7.551-19.188 0-15.563-12.662-28.225-28.225-28.225s-28.225 12.661-28.225 28.225c0 7.416 2.879 14.168 7.572 19.21-6.44 4.066-11.62 9.976-14.777 17.002-7.403-8.357-11.91-19.334-11.91-31.349 0-26.103 21.237-47.34 47.34-47.34zm-434.103 47.6c0-26.104 21.237-47.341 47.34-47.341s47.34 21.237 47.34 47.341c0 12.009-4.503 22.981-11.899 31.336-1.918-4.288-4.612-8.228-7.992-11.602-2.076-2.076-4.352-3.878-6.775-5.41 4.681-5.04 7.551-11.784 7.551-19.188 0-15.563-12.662-28.225-28.225-28.225s-28.225 12.663-28.225 28.226c0 7.416 2.879 14.168 7.572 19.21-6.44 4.066-11.62 9.976-14.777 17.002-7.402-8.356-11.91-19.333-11.91-31.349zm47.34 8.363c-7.292 0-13.225-5.933-13.225-13.226 0-7.292 5.933-13.225 13.225-13.225s13.225 5.933 13.225 13.225c0 7.293-5.932 13.226-13.225 13.226zm-23.084 32.946c2.632-10.345 12.054-17.945 23.084-17.945 6.362 0 12.343 2.478 16.847 6.982 3.052 3.046 5.195 6.839 6.241 10.96-6.835 3.836-14.708 6.034-23.088 6.034-8.378 0-16.249-2.197-23.084-6.031zm0 385.202c2.631-10.345 12.054-17.945 23.084-17.945 6.362 0 12.343 2.478 16.847 6.981 3.052 3.046 5.195 6.839 6.241 10.961-6.835 3.836-14.708 6.034-23.088 6.034-8.378 0-16.249-2.197-23.084-6.031zm23.084-32.947c-7.292 0-13.225-5.933-13.225-13.225 0-7.293 5.933-13.226 13.225-13.226s13.225 5.933 13.225 13.226c0 7.292-5.932 13.225-13.225 13.225zm35.442 22.974c-1.918-4.288-4.612-8.229-7.993-11.603-2.076-2.076-4.352-3.877-6.774-5.408 4.681-5.04 7.551-11.783 7.551-19.188 0-15.563-12.662-28.226-28.225-28.226s-28.225 12.662-28.225 28.226c0 7.416 2.879 14.168 7.572 19.21-6.441 4.066-11.621 9.976-14.777 17.002-7.403-8.357-11.911-19.334-11.911-31.35 0-26.104 21.237-47.34 47.34-47.34s47.34 21.236 47.34 47.34c.001 12.01-4.502 22.982-11.898 31.337zm309.678-311.099v171.158l-84.56-92.179zm19.116 321.072c2.631-10.345 12.054-17.945 23.084-17.945 6.362 0 12.343 2.478 16.847 6.98 3.052 3.047 5.195 6.84 6.241 10.962-6.835 3.836-14.708 6.034-23.088 6.034-8.379 0-16.25-2.197-23.084-6.031zm23.084-32.947c-7.292 0-13.225-5.933-13.225-13.225 0-7.293 5.933-13.226 13.225-13.226s13.225 5.933 13.225 13.226c0 7.292-5.933 13.225-13.225 13.225zm35.441 22.974c-1.918-4.288-4.612-8.229-7.992-11.603-2.076-2.076-4.352-3.877-6.774-5.408 4.681-5.04 7.551-11.783 7.551-19.188 0-15.563-12.662-28.226-28.225-28.226s-28.225 12.662-28.225 28.226c0 7.416 2.879 14.168 7.572 19.21-6.441 4.066-11.621 9.976-14.777 17.002-7.403-8.357-11.91-19.334-11.91-31.35 0-26.104 21.237-47.34 47.34-47.34s47.339 21.237 47.339 47.34c0 12.01-4.503 22.982-11.899 31.337z" fill="#000000" data-original="#000000" style="" class=""/></g></g></svg>
