<svg height="512" viewBox="0 0 64 64" width="512" xmlns="http://www.w3.org/2000/svg"><path d="m57 20h-16v-13a1 1 0 0 0 -1-1h-16a1 1 0 0 0 -1 1v13h-16a5.006 5.006 0 0 0 -5 5v32a5.006 5.006 0 0 0 5 5h50a5.006 5.006 0 0 0 5-5v-32a5.006 5.006 0 0 0 -5-5zm-15.271 21 17.946-17.33a2.962 2.962 0 0 1 .325 1.33v32a2.962 2.962 0 0 1 -.325 1.33zm-16.729-16v-17h14v17a1 1 0 0 0 1 1h3.586l-11.586 11.586-11.586-11.586h3.586a1 1 0 0 0 1-1zm-2-3v2h-5a1 1 0 0 0 -.707 1.707l14 14a1 1 0 0 0 1.414 0l14-14a1 1 0 0 0 -.707-1.707h-5v-2h16a2.977 2.977 0 0 1 1.24.276l-24.153 23.324a3 3 0 0 1 -4.172 0l-24.155-23.324a2.977 2.977 0 0 1 1.24-.276zm-18.675 36.33a2.966 2.966 0 0 1 -.325-1.33v-32a2.966 2.966 0 0 1 .325-1.33l17.946 17.33zm2.675 1.67a2.977 2.977 0 0 1 -1.24-.276l17.951-17.334 4.816 4.651a5 5 0 0 0 6.948 0l4.815-4.65 17.95 17.333a2.977 2.977 0 0 1 -1.24.276z"/></svg>