<svg width="41" height="40" viewBox="0 0 41 40" fill="none" xmlns="http://www.w3.org/2000/svg">
<path d="M40.4043 21.7433C39.7971 21.0426 38.7626 20.2513 37.4905 19.5154C35.3737 18.291 33.0923 17.5 31.6797 17.5C31.1043 17.5 30.7611 17.6288 30.5743 17.7365C30.1584 17.9773 29.848 18.4797 30.7369 19.5072C31.343 20.2079 32.3775 20.9992 33.6508 21.7353C35.7674 22.959 38.0479 23.75 39.4614 23.75C40.0358 23.75 40.3789 23.6212 40.5658 23.5132C40.9817 23.2727 41.2922 22.7704 40.4043 21.7433ZM39.8013 23.0712C39.7242 23.1152 39.5743 23.125 39.4613 23.125C38.5566 23.125 36.5918 22.5517 34.415 21.2932C33.2219 20.6036 32.2591 19.87 31.7028 19.2276C31.2046 18.6505 31.1644 18.2794 31.3387 18.1787C31.4157 18.1341 31.5666 18.125 31.6795 18.125C32.5845 18.125 34.5491 18.6984 36.726 19.9571C37.9191 20.6469 38.8809 21.3805 39.4371 22.0225C39.9354 22.5993 39.9756 22.9705 39.8013 23.0712Z" fill="#FFA304"/>
<path d="M37.9634 22.058C37.5675 21.5539 36.8338 20.9778 35.8973 20.4363C34.9598 19.8944 33.9633 19.4698 33.0912 19.2409C32.8198 19.1704 32.4989 19.2394 32.3754 19.3966C32.2518 19.5538 32.3721 19.739 32.6435 19.8104C33.3899 20.0061 34.2978 20.3952 35.133 20.8783C35.968 21.3611 36.6404 21.8847 36.9793 22.3169C37.069 22.4317 37.2665 22.5001 37.4714 22.5001C37.5464 22.5001 37.6224 22.4916 37.6952 22.4719C37.9665 22.4011 38.0869 22.2156 37.9634 22.058Z" fill="#FFA304"/>
<path d="M32.901 35.3126C32.6023 35.3126 32.3605 35.4522 32.3605 35.625C32.3605 37.6929 29.451 39.375 25.874 39.375C22.2972 39.375 19.3876 37.6929 19.3876 35.625C19.3876 35.4522 19.1458 35.3126 18.8471 35.3126C18.5484 35.3126 18.3066 35.4522 18.3066 35.625C18.3066 38.0372 21.7018 40 25.874 40C30.0464 40 33.4415 38.0372 33.4415 35.625C33.4415 35.4522 33.1999 35.3126 32.901 35.3126Z" fill="#FFA304"/>
<path d="M37.4407 22.688C37.1788 22.6086 36.8495 22.6672 36.7122 22.8211C32.3594 27.6611 32.3605 32.7991 32.3605 35.5603V35.625C32.3605 35.7978 32.6023 35.9376 32.901 35.9376C33.1999 35.9376 33.4415 35.7978 33.4415 35.6251V35.5604C33.4415 32.6624 33.4404 27.8138 37.6709 23.1093C37.8092 22.9566 37.7056 22.7674 37.4407 22.688Z" fill="#FFA304"/>
<path d="M22.5854 3.45152C22.6045 3.27938 22.3785 3.13083 22.0808 3.1195C21.8147 3.1152 21.5265 3.23851 21.5065 3.4112C21.3746 4.58583 18.2728 32.2174 18.3066 35.6268C18.3087 35.7984 18.5504 35.9376 18.8471 35.9376C18.8482 35.9376 18.8492 35.9376 18.85 35.9375C19.1489 35.9363 19.3896 35.7959 19.3875 35.6231C19.3537 32.2364 22.5527 3.73901 22.5854 3.45152Z" fill="#FFA304"/>
<path d="M18.4301 21.5808C18.4481 21.4086 18.2211 21.2609 17.9234 21.2505C17.5929 21.2426 17.368 21.372 17.3511 21.5442C16.5151 29.6314 16.098 34.3695 16.1107 35.6268C16.1129 35.7984 16.3545 35.9376 16.6512 35.9376C16.6523 35.9376 16.6532 35.9376 16.6543 35.9375C16.953 35.9363 17.1939 35.7959 17.1917 35.6231C17.1792 34.3793 17.5961 29.6546 18.4301 21.5808Z" fill="#FFA304"/>
<path d="M27.4619 35.3126C27.1631 35.3126 26.9214 35.4522 26.9214 35.625C26.9214 35.9693 26.4369 36.25 25.8403 36.25C25.2439 36.25 24.7592 35.9693 24.7592 35.625C24.7592 35.4522 24.5175 35.3126 24.2187 35.3126C23.92 35.3126 23.6782 35.4522 23.6782 35.625C23.6782 36.3147 24.6484 36.875 25.8403 36.875C27.0324 36.875 28.0024 36.3147 28.0024 35.625C28.0024 35.4522 27.7608 35.3126 27.4619 35.3126Z" fill="#FFA304"/>
<path d="M31.7302 19.399C31.458 19.3324 31.1381 19.4075 31.0229 19.5672C28.9221 22.4792 27.7671 24.4524 27.2857 27.1557C27.255 27.3273 27.4704 27.4805 27.7682 27.4988C27.7862 27.4994 27.8051 27.5 27.8242 27.5C28.0975 27.5 28.3318 27.3804 28.3602 27.2191C28.7795 24.868 29.6683 23.0675 32.0215 19.8076C32.1356 19.6484 32.0057 19.4656 31.7302 19.399Z" fill="#FFA304"/>
<path d="M27.4619 34.4141C27.1631 34.4141 26.9214 34.5539 26.9214 34.7265V35.625C26.9214 35.7978 27.1631 35.9376 27.4619 35.9376C27.7608 35.9376 28.0024 35.7978 28.0024 35.625V34.7265C28.0024 34.5539 27.7608 34.4141 27.4619 34.4141Z" fill="#FFA304"/>
<path d="M24.2187 3.12497C23.92 3.12497 23.6782 3.26476 23.6782 3.43746V15.9375C23.6782 16.1102 23.92 16.25 24.2187 16.25C24.5175 16.25 24.7592 16.1103 24.7592 15.9375V3.43746C24.7592 3.26476 24.5175 3.12497 24.2187 3.12497Z" fill="#FFA304"/>
<path d="M18.8133 0C18.5146 0 18.2728 0.139718 18.2728 0.312489C18.2728 0.485182 18.5146 0.624978 18.8133 0.624978C21.496 0.624978 23.6782 1.8865 23.6782 3.43746C23.6782 3.61015 23.92 3.74995 24.2187 3.74995C24.5175 3.74995 24.7592 3.61023 24.7592 3.43746C24.7592 1.54197 22.0914 0 18.8133 0Z" fill="#FFA304"/>
<path d="M18.8134 1.24996C18.5147 1.24996 18.2729 1.38975 18.2729 1.56245C18.2729 1.73522 18.5147 1.87493 18.8134 1.87493C20.2976 1.87493 21.5056 2.57321 21.5056 3.43136C21.5056 3.60406 21.7473 3.74385 22.0461 3.74385C22.3448 3.74385 22.5866 3.60413 22.5868 3.43136C22.5868 2.22868 20.8942 1.24996 18.8134 1.24996Z" fill="#FFA304"/>
<path d="M18.8133 0C17.1325 0 16.2911 0.453457 15.4761 0.892301C14.5704 1.3803 13.6329 1.8847 11.2458 1.8847C10.9471 1.8847 10.7053 2.02458 10.7053 2.19727C10.7053 2.36996 10.9471 2.50976 11.2458 2.50976C14.0584 2.50976 15.2535 1.86642 16.213 1.34943C16.9647 0.944812 17.558 0.624978 18.8133 0.624978C19.112 0.624978 19.3538 0.485182 19.3538 0.312489C19.3538 0.139718 19.112 0 18.8133 0Z" fill="#FFA304"/>
<path d="M18.8344 1.23042C17.8357 1.24386 17.1125 1.53439 16.3471 1.84204C15.1742 2.31323 13.958 2.8006 11.3461 2.51523C11.0579 2.48288 10.7696 2.59392 10.7147 2.76427C10.6588 2.93391 10.8521 3.09723 11.1455 3.12927C11.7527 3.19545 12.2984 3.22444 12.7946 3.22444C14.8004 3.22444 15.9787 2.75114 16.9647 2.35496C17.6467 2.08092 18.1863 1.86423 18.8598 1.8554C19.1574 1.85149 19.3939 1.70834 19.3876 1.53588C19.3802 1.36318 19.1225 1.2405 18.8344 1.23042Z" fill="#FFA304"/>
<path d="M11.2458 1.8847C10.9471 1.8847 10.7053 2.02458 10.7053 2.19727V2.82225C10.7053 2.99494 10.9471 3.13474 11.2458 3.13474C11.5446 3.13474 11.7864 2.99494 11.7864 2.82225V2.19719C11.7864 2.02442 11.5446 1.8847 11.2458 1.8847Z" fill="#FFA304"/>
<path d="M11.7591 2.72332C11.664 2.55946 11.3578 2.47186 11.075 2.52586L7.88241 3.14114C7.59952 3.19553 7.44638 3.37244 7.54031 3.53638C7.61628 3.66719 7.82754 3.74995 8.05339 3.74995C8.1103 3.74995 8.16733 3.74479 8.22451 3.73377L11.417 3.11856C11.6999 3.06417 11.8531 2.88718 11.7591 2.72332Z" fill="#FFA304"/>
<path d="M11.4189 1.90127L8.17571 1.26652C7.89498 1.21065 7.58559 1.2995 7.49058 1.46242C7.39447 1.62566 7.5464 1.80328 7.82943 1.85852L11.0727 2.49335C11.1297 2.5046 11.1888 2.50976 11.2458 2.50976C11.4718 2.50976 11.6818 2.42771 11.7578 2.29737C11.8539 2.13413 11.7018 1.95651 11.4189 1.90127Z" fill="#FFA304"/>
<path d="M8.18436 3.13419L1.64736 2.1936C1.35271 2.15202 1.06346 2.25392 0.991687 2.42154C0.919916 2.58907 1.09617 2.75848 1.38542 2.80029L7.92255 3.7408C7.96675 3.7469 8.01014 3.74995 8.05339 3.74995C8.29614 3.74995 8.51686 3.65508 8.57823 3.51294C8.65 3.34533 8.47375 3.17599 8.18436 3.13419Z" fill="#FFA304"/>
<path d="M8.52741 1.4868C8.45456 1.31927 8.16301 1.21761 7.87173 1.2591L1.38528 2.19352C1.09603 2.23532 0.919781 2.40505 0.991552 2.57258C1.05278 2.71449 1.2735 2.80943 1.51625 2.80943C1.5595 2.80943 1.60276 2.80638 1.64723 2.80029L8.13354 1.86587C8.42293 1.82399 8.59918 1.65434 8.52741 1.4868Z" fill="#FFA304"/>
<path d="M8.00271 1.24996C7.704 1.24996 7.46219 1.38975 7.46219 1.56245V3.43746C7.46219 3.61015 7.704 3.74995 8.00271 3.74995C8.30142 3.74995 8.54322 3.61023 8.54336 3.43746V1.56245C8.54336 1.38975 8.30142 1.24996 8.00271 1.24996Z" fill="#FFA304"/>
<path d="M18.8133 21.25H17.8905C17.5918 21.25 17.35 21.3898 17.35 21.5625C17.35 21.7353 17.5918 21.8749 17.8905 21.8749H18.8133C19.1121 21.8749 19.3538 21.7353 19.3538 21.5625C19.3538 21.3898 19.112 21.25 18.8133 21.25Z" fill="#FFA304"/>
<path d="M26.3809 13.125C26.0821 13.125 25.8403 13.2648 25.8403 13.4375V24.0624C25.8403 24.2352 26.0821 24.375 26.3809 24.375C26.6796 24.375 26.9214 24.2352 26.9214 24.0624V13.4375C26.9214 13.2648 26.6796 13.125 26.3809 13.125Z" fill="#FFA304"/>
<path d="M26.3809 13.125H25.2999C25.001 13.125 24.7592 13.2648 24.7592 13.4375C24.7592 13.6102 25.001 13.75 25.2999 13.75H26.3809C26.6796 13.75 26.9214 13.6102 26.9214 13.4375C26.9214 13.2648 26.6796 13.125 26.3809 13.125Z" fill="#FFA304"/>
<path d="M23.6782 16.875C22.4863 16.875 21.5161 17.4356 21.5161 18.125C21.5161 18.8144 22.4863 19.3749 23.6782 19.3749C24.8701 19.3749 25.8403 18.8144 25.8403 18.125C25.8403 17.4356 24.8701 16.875 23.6782 16.875ZM23.6782 18.75C23.0817 18.75 22.5972 18.4697 22.5972 18.1251C22.5972 17.7805 23.0817 17.5 23.6782 17.5C24.2747 17.5 24.7592 17.7805 24.7592 18.1251C24.7592 18.4696 24.2747 18.75 23.6782 18.75Z" fill="#FFA304"/>
<path d="M23.6782 20C22.4863 20 21.5161 20.5606 21.5161 21.25C21.5161 21.9396 22.4863 22.5001 23.6782 22.5001C24.8701 22.5001 25.8403 21.9396 25.8403 21.25C25.8403 20.5606 24.8701 20 23.6782 20ZM23.6782 21.8749C23.0817 21.8749 22.5972 21.5942 22.5972 21.25C22.5972 20.9058 23.0817 20.625 23.6782 20.625C24.2747 20.625 24.7592 20.9058 24.7592 21.25C24.7592 21.5942 24.2747 21.8749 23.6782 21.8749Z" fill="#FFA304"/>
<path d="M23.6782 23.1257C22.4863 23.1257 21.5161 23.6865 21.5161 24.375C21.5161 25.0647 22.4863 25.625 23.6782 25.625C24.8701 25.625 25.8403 25.0647 25.8403 24.375C25.8403 23.6866 24.8701 23.1257 23.6782 23.1257ZM23.6782 25C23.0817 25 22.5972 24.7191 22.5972 24.375C22.5972 24.0307 23.0817 23.7506 23.6782 23.7506C24.2747 23.7506 24.7592 24.0307 24.7592 24.375C24.7592 24.7191 24.2747 25 23.6782 25Z" fill="#FFA304"/>
<path d="M23.6782 26.2513C22.4863 26.2513 21.5161 26.8115 21.5161 27.5001C21.5161 28.1898 22.4863 28.7501 23.6782 28.7501C24.8701 28.7501 25.8403 28.1898 25.8403 27.5001C25.8403 26.8115 24.8701 26.2513 23.6782 26.2513ZM23.6782 28.125C23.0817 28.125 22.5972 27.8442 22.5972 27.5C22.5972 27.1558 23.0817 26.8762 23.6782 26.8762C24.2747 26.8762 24.7592 27.1558 24.7592 27.5C24.7592 27.8442 24.2747 28.125 23.6782 28.125Z" fill="#FFA304"/>
<path d="M23.6782 29.3763C22.4863 29.3763 21.5161 29.9365 21.5161 30.625C21.5161 31.3147 22.4863 31.875 23.6782 31.875C24.8701 31.875 25.8403 31.3147 25.8403 30.625C25.8403 29.9366 24.8701 29.3763 23.6782 29.3763ZM23.6782 31.2499C23.0817 31.2499 22.5972 30.9692 22.5972 30.6249C22.5972 30.2808 23.0817 30.0012 23.6782 30.0012C24.2747 30.0012 24.7592 30.2808 24.7592 30.6249C24.7592 30.9692 24.2747 31.2499 23.6782 31.2499Z" fill="#FFA304"/>
<path d="M23.6782 32.5014C22.4863 32.5014 21.5161 33.0616 21.5161 33.7501C21.5161 34.4397 22.4863 35 23.6782 35C24.8701 35 25.8403 34.4397 25.8403 33.7501C25.8403 33.0616 24.8701 32.5014 23.6782 32.5014ZM23.6782 34.375C23.0817 34.375 22.5972 34.0941 22.5972 33.75C22.5972 33.4057 23.0817 33.1263 23.6782 33.1263C24.2747 33.1263 24.7592 33.4058 24.7592 33.75C24.7592 34.0941 24.2747 34.375 23.6782 34.375Z" fill="#FFA304"/>
<path d="M28.543 27.5001C27.0524 27.5001 25.8403 28.2008 25.8403 29.0625C25.8403 29.9243 27.0524 30.625 28.543 30.625C30.0338 30.625 31.2457 29.9243 31.2457 29.0625C31.2457 28.2008 30.0337 27.5001 28.543 27.5001ZM28.543 30C27.6489 30 26.9214 29.5796 26.9214 29.0625C26.9214 28.5456 27.6489 28.1251 28.543 28.1251C29.4372 28.1251 30.1646 28.5455 30.1646 29.0625C30.1646 29.5796 29.4372 30 28.543 30Z" fill="#FFA304"/>
<path d="M28.543 31.2512C27.0524 31.2512 25.8403 31.9519 25.8403 32.8138C25.8403 33.6756 27.0524 34.3763 28.543 34.3763C30.0338 34.3763 31.2457 33.6756 31.2457 32.8138C31.2457 31.9519 30.0337 31.2512 28.543 31.2512ZM28.543 33.7512C27.6489 33.7512 26.9214 33.3306 26.9214 32.8137C26.9214 32.2968 27.6489 31.8761 28.543 31.8761C29.4372 31.8761 30.1646 32.2968 30.1646 32.8137C30.1646 33.3306 29.4372 33.7512 28.543 33.7512Z" fill="#FFA304"/>
<path d="M28.9253 28.8417L27.3965 27.9584C27.1854 27.8364 26.8433 27.8364 26.6322 27.9584C26.421 28.0805 26.421 28.2787 26.6322 28.4002L28.1609 29.2835C28.2664 29.3445 28.4047 29.3751 28.543 29.3751C28.6814 29.3751 28.8196 29.3445 28.9253 29.2835C29.1365 29.1614 29.1365 28.9636 28.9253 28.8417Z" fill="#FFA304"/>
<path d="M28.9252 32.5927L27.3964 31.709C27.1853 31.5869 26.8432 31.5869 26.632 31.709C26.4209 31.8309 26.4209 32.0288 26.632 32.1508L28.1609 33.0347C28.2664 33.0957 28.4047 33.1263 28.543 33.1263C28.6814 33.1263 28.8196 33.0958 28.9252 33.0347C29.1363 32.9126 29.1363 32.7148 28.9252 32.5927Z" fill="#FFA304"/>
<path d="M21.8348 4.99998H20.9755C20.6766 4.99998 20.4348 5.13978 20.4348 5.31255C20.4348 5.48524 20.6768 5.62504 20.9755 5.62504H21.8348C22.1336 5.62504 22.3754 5.48516 22.3754 5.31255C22.3754 5.13978 22.1336 4.99998 21.8348 4.99998Z" fill="#FFA304"/>
</svg>
