<?xml version="1.0" encoding="iso-8859-1"?>
<!-- Generator: Adobe Illustrator 19.0.0, SVG Export Plug-In . SVG Version: 6.00 Build 0)  -->
<svg version="1.1" id="Capa_1" xmlns="http://www.w3.org/2000/svg" xmlns:xlink="http://www.w3.org/1999/xlink" x="0px" y="0px"
	 viewBox="0 0 511.89 511.89" style="enable-background:new 0 0 511.89 511.89;" xml:space="preserve">
<g>
	<g>
		<path d="M399.689,278.254c-4.492-8.967-12.146-19.093-21.558-28.51c-15.661-15.669-32.54-25.792-42.991-25.792
			c-4.257,0-6.796,1.648-8.178,3.027c-3.077,3.081-5.374,9.51,1.203,22.659c4.484,8.967,12.138,19.094,21.558,28.514
			c15.66,15.66,32.532,25.783,42.99,25.783c4.25,0,6.788-1.648,8.171-3.031C403.961,297.826,406.258,291.399,399.689,278.254z
			 M395.228,295.248c-0.571,0.563-1.68,0.688-2.516,0.688c-6.693,0-21.23-7.336-37.335-23.441
			c-8.827-8.826-15.95-18.214-20.066-26.435c-3.686-7.385-3.983-12.134-2.694-13.423c0.57-0.57,1.686-0.687,2.522-0.687
			c6.695,0,21.23,7.338,37.336,23.446c8.827,8.827,15.943,18.215,20.058,26.432C396.22,289.209,396.517,293.959,395.228,295.248z"/>
	</g>
</g>
<g>
	<g>
		<path d="M381.63,282.282c-2.929-6.451-8.357-13.824-15.286-20.754c-6.936-6.935-14.309-12.368-20.761-15.297
			c-2.008-0.902-4.382-0.019-5.296,1.992c-0.914,2.012-0.024,4.382,1.984,5.296c5.522,2.504,12.239,7.484,18.418,13.666
			c6.178,6.178,11.153,12.879,13.66,18.41c0.664,1.469,2.125,2.344,3.641,2.344c0.555,0,1.117-0.109,1.656-0.36
			C381.653,286.673,382.544,284.298,381.63,282.282z"/>
	</g>
</g>
<g>
	<g>
		<path d="M344.176,451.904c-2.21,0-3.999,1.787-3.999,3.998c0,26.463-21.526,47.99-47.99,47.99c-26.463,0-47.99-21.527-47.99-47.99
			c0-2.211-1.789-3.998-3.999-3.998c-2.21,0-3.999,1.787-3.999,3.998c0,30.869,25.12,55.988,55.988,55.988
			c30.869,0,55.988-25.119,55.988-55.988C348.175,453.691,346.387,451.904,344.176,451.904z"/>
	</g>
</g>
<g>
	<g>
		<path d="M377.763,290.344c-1.938-1.016-4.374-0.266-5.39,1.703c-32.204,61.939-32.196,127.691-32.196,163.027v0.828
			c0,2.211,1.789,4,3.999,4c2.211,0,3.999-1.789,3.999-3.999v-0.828c0-37.086-0.008-99.135,31.291-159.34
			C380.489,293.782,379.723,291.36,377.763,290.344z"/>
	</g>
</g>
<g>
	<g>
		<path d="M267.856,44.17c0.141-2.203-1.531-4.104-3.733-4.249c-1.969-0.055-4.101,1.523-4.249,3.733
			c-0.976,15.032-23.925,368.64-23.675,412.271c0.016,2.196,1.804,3.977,3.999,3.977c0.008,0,0.016,0,0.022-0.001
			c2.211-0.015,3.992-1.812,3.976-4.023C243.946,412.537,267.614,47.849,267.856,44.17z"/>
	</g>
</g>
<g>
	<g>
		<path d="M237.113,276.175c0.133-2.204-1.546-4.094-3.749-4.227c-2.445-0.101-4.109,1.555-4.234,3.758
			c-6.185,103.494-9.271,164.129-9.177,180.219c0.016,2.196,1.804,3.977,3.999,3.977c0.008,0,0.015,0,0.023-0.001
			c2.21-0.015,3.992-1.812,3.976-4.023C227.858,439.96,230.943,379.497,237.113,276.175z"/>
	</g>
</g>
<g>
	<g>
		<path d="M303.935,451.904c-2.211,0-3.999,1.787-3.999,3.998c0,4.406-3.585,7.998-7.999,7.998c-4.412,0-7.998-3.592-7.998-7.998
			c0-2.211-1.788-3.998-3.999-3.998c-2.21,0-3.999,1.787-3.999,3.998c0,8.826,7.178,15.996,15.996,15.996
			c8.82,0,15.997-7.17,15.997-15.996C307.934,453.691,306.146,451.904,303.935,451.904z"/>
	</g>
</g>
<g>
	<g>
		<path d="M335.514,248.254c-2.014-0.852-4.381,0.109-5.233,2.152c-15.543,37.266-24.088,62.518-27.65,97.112
			c-0.227,2.196,1.367,4.157,3.57,4.391c0.133,0.008,0.273,0.016,0.414,0.016c2.022,0,3.756-1.531,3.966-3.595
			c3.102-30.088,9.678-53.129,27.088-94.847C338.513,251.445,337.552,249.106,335.514,248.254z"/>
	</g>
</g>
<g>
	<g>
		<path d="M303.935,440.406c-2.211,0-3.999,1.789-3.999,3.998v11.498c0,2.211,1.788,4,3.999,4s3.999-1.789,3.999-4v-11.498
			C307.934,442.195,306.146,440.406,303.935,440.406z"/>
	</g>
</g>
<g>
	<g>
		<path d="M279.94,39.991c-2.21,0-3.999,1.789-3.999,3.999v159.966c0,2.21,1.789,3.999,3.999,3.999c2.211,0,3.999-1.788,3.999-3.999
			V43.99C283.939,41.78,282.151,39.991,279.94,39.991z"/>
	</g>
</g>
<g>
	<g>
		<path d="M239.948,0c-2.21,0-3.999,1.788-3.999,3.999c0,2.21,1.789,3.999,3.999,3.999c19.848,0,35.993,16.144,35.993,35.992
			c0,2.21,1.789,3.999,3.999,3.999c2.211,0,3.999-1.788,3.999-3.999C283.939,19.733,264.201,0,239.948,0z"/>
	</g>
</g>
<g>
	<g>
		<path d="M239.949,15.996c-2.21,0-3.999,1.789-3.999,3.999c0,2.211,1.789,3.999,3.999,3.999c10.981,0,19.918,8.936,19.918,19.918
			c0,2.21,1.788,3.999,3.999,3.999c2.21,0,3.999-1.788,4-3.999C267.866,28.521,255.344,15.996,239.949,15.996z"/>
	</g>
</g>
<g>
	<g>
		<path d="M239.948,0c-12.435,0-18.66,5.803-24.69,11.419c-6.701,6.245-13.637,12.7-31.298,12.7c-2.21,0-3.999,1.79-3.999,4
			c0,2.21,1.789,3.999,3.999,3.999c20.809,0,29.651-8.233,36.75-14.849c5.561-5.178,9.951-9.271,19.238-9.271
			c2.21,0,3.999-1.789,3.999-3.999C243.947,1.788,242.158,0,239.948,0z"/>
	</g>
</g>
<g>
	<g>
		<path d="M240.104,15.746c-7.389,0.172-12.739,3.89-18.402,7.827c-8.678,6.03-17.676,12.267-37,8.615
			c-2.132-0.414-4.265,1.007-4.671,3.187c-0.414,2.171,1.016,4.261,3.187,4.671c4.492,0.847,8.53,1.218,12.201,1.218
			c14.84,0,23.557-6.057,30.852-11.127c5.046-3.507,9.038-6.28,14.021-6.393c2.202-0.05,3.952-1.882,3.905-4.089
			C244.142,17.445,242.236,15.875,240.104,15.746z"/>
	</g>
</g>
<g>
	<g>
		<path d="M183.96,24.118c-2.21,0-3.999,1.79-3.999,4v7.999c0,2.21,1.789,3.999,3.999,3.999c2.211,0,4-1.789,4-3.999v-7.999
			C187.96,25.907,186.171,24.118,183.96,24.118z"/>
	</g>
</g>
<g>
	<g>
		<path d="M187.758,34.851c-0.704-2.097-2.969-3.218-5.062-2.527l-23.62,7.874c-2.093,0.696-3.226,2.96-2.531,5.058
			c0.562,1.674,2.125,2.733,3.796,2.733c0.421,0,0.843-0.066,1.266-0.207l23.62-7.873C187.32,39.213,188.453,36.948,187.758,34.851z
			"/>
	</g>
</g>
<g>
	<g>
		<path d="M185.241,24.331l-23.995-8.123c-2.077-0.715-4.366,0.422-5.069,2.507c-0.711,2.089,0.413,4.362,2.507,5.069l23.995,8.124
			c0.422,0.144,0.859,0.21,1.281,0.21c1.672,0,3.226-1.05,3.788-2.718C188.459,27.311,187.334,25.038,185.241,24.331z"/>
	</g>
</g>
<g>
	<g>
		<path d="M161.31,40.109l-48.364-12.037c-2.18-0.532-4.32,0.772-4.851,2.917c-0.531,2.144,0.773,4.312,2.913,4.847l48.365,12.036
			c0.327,0.078,0.648,0.117,0.968,0.117c1.796,0,3.429-1.214,3.883-3.033C164.755,42.811,163.451,40.644,161.31,40.109z"/>
	</g>
</g>
<g>
	<g>
		<path d="M163.848,19.027c-0.539-2.144-2.696-3.445-4.851-2.914l-47.99,11.958c-2.14,0.535-3.444,2.707-2.913,4.851
			c0.453,1.816,2.086,3.031,3.882,3.031c0.32,0,0.64-0.039,0.969-0.117l47.989-11.958C163.075,23.342,164.379,21.171,163.848,19.027
			z"/>
	</g>
</g>
<g>
	<g>
		<path d="M159.966,15.996c-2.21,0-3.999,1.789-3.999,3.999V43.99c0,2.21,1.789,3.999,3.999,3.999s3.999-1.788,4-3.999V19.995
			C163.966,17.785,162.176,15.996,159.966,15.996z"/>
	</g>
</g>
<g>
	<g>
		<path d="M239.948,271.941h-6.827c-2.21,0-3.999,1.789-3.999,4s1.789,3.998,3.999,3.998h6.827c2.211,0,3.999-1.787,3.999-3.998
			S242.158,271.941,239.948,271.941z"/>
	</g>
</g>
<g>
	<g>
		<path d="M295.937,167.964c-2.211,0-4,1.789-4,3.999v135.97c0,2.211,1.789,4,4,4c2.21,0,3.999-1.789,3.999-4v-135.97
			C299.936,169.753,298.147,167.964,295.937,167.964z"/>
	</g>
</g>
<g>
	<g>
		<path d="M295.937,167.964h-7.998c-2.211,0-4,1.789-4,3.999c0,2.21,1.789,3.999,4,3.999h7.998c2.21,0,3.999-1.789,3.999-3.999
			C299.936,169.753,298.147,167.964,295.937,167.964z"/>
	</g>
</g>
<g>
	<g>
		<path d="M275.941,215.953c-8.818,0-15.996,7.175-15.996,15.997s7.178,15.996,15.996,15.996s15.996-7.174,15.996-15.996
			C291.937,223.128,284.759,215.953,275.941,215.953z M275.941,239.949c-4.413,0-7.998-3.588-7.998-7.998s3.585-7.999,7.998-7.999
			c4.413,0,7.998,3.59,7.998,7.999S280.354,239.949,275.941,239.949z"/>
	</g>
</g>
<g>
	<g>
		<path d="M275.941,255.945c-8.818,0-15.996,7.174-15.996,15.996c0,8.826,7.178,15.998,15.996,15.998s15.996-7.172,15.996-15.998
			C291.937,263.119,284.759,255.945,275.941,255.945z M275.941,279.939c-4.413,0-7.998-3.592-7.998-7.998
			c0-4.404,3.585-7.998,7.998-7.998c4.413,0,7.998,3.594,7.998,7.998C283.939,276.347,280.354,279.939,275.941,279.939z"/>
	</g>
</g>
<g>
	<g>
		<path d="M275.941,295.945c-8.818,0-15.996,7.177-15.996,15.988c0,8.826,7.178,15.996,15.996,15.996s15.996-7.17,15.996-15.996
			C291.937,303.123,284.759,295.945,275.941,295.945z M275.941,319.931c-4.413,0-7.998-3.594-7.998-7.998
			c0-4.406,3.585-7.99,7.998-7.99c4.413,0,7.998,3.584,7.998,7.99C283.939,316.337,280.354,319.931,275.941,319.931z"/>
	</g>
</g>
<g>
	<g>
		<path d="M275.941,335.944c-8.818,0-15.996,7.17-15.996,15.982c0,8.826,7.178,15.996,15.996,15.996s15.996-7.17,15.996-15.996
			C291.937,343.114,284.759,335.944,275.941,335.944z M275.941,359.923c-4.413,0-7.998-3.594-7.998-7.998
			c0-4.406,3.585-7.984,7.998-7.984c4.413,0,7.998,3.578,7.998,7.984C283.939,356.329,280.354,359.923,275.941,359.923z"/>
	</g>
</g>
<g>
	<g>
		<path d="M275.941,375.936c-8.818,0-15.996,7.169-15.996,15.98c0,8.826,7.178,15.996,15.996,15.996s15.996-7.17,15.996-15.996
			C291.937,383.106,284.759,375.936,275.941,375.936z M275.941,399.913c-4.413,0-7.998-3.592-7.998-7.998
			c0-4.404,3.585-7.982,7.998-7.982c4.413,0,7.998,3.578,7.998,7.982C283.939,396.321,280.354,399.913,275.941,399.913z"/>
	</g>
</g>
<g>
	<g>
		<path d="M275.941,415.928c-8.818,0-15.996,7.169-15.996,15.98c0,8.826,7.178,15.996,15.996,15.996s15.996-7.17,15.996-15.996
			C291.937,423.098,284.759,415.928,275.941,415.928z M275.941,439.905c-4.413,0-7.998-3.594-7.998-7.998
			c0-4.406,3.585-7.982,7.998-7.982c4.413,0,7.998,3.577,7.998,7.982C283.939,436.311,280.354,439.905,275.941,439.905z"/>
	</g>
</g>
<g>
	<g>
		<path d="M311.933,351.926c-11.028,0-19.996,8.967-19.996,19.994c0,11.029,8.968,19.996,19.996,19.996
			c11.03,0,19.996-8.967,19.996-19.996C331.929,360.893,322.962,351.926,311.933,351.926z M311.933,383.918
			c-6.615,0-11.997-5.381-11.997-11.998c0-6.615,5.382-11.996,11.997-11.996c6.616,0,11.998,5.38,11.998,11.996
			C323.931,378.537,318.549,383.918,311.933,383.918z"/>
	</g>
</g>
<g>
	<g>
		<path d="M311.933,399.93c-11.028,0-19.996,8.967-19.996,19.996s8.968,19.996,19.996,19.996c11.03,0,19.996-8.967,19.996-19.996
			S322.962,399.93,311.933,399.93z M311.933,431.923c-6.615,0-11.997-5.383-11.997-11.998s5.382-11.998,11.997-11.998
			c6.616,0,11.998,5.383,11.998,11.998S318.549,431.923,311.933,431.923z"/>
	</g>
</g>
<g>
	<g>
		<path d="M314.762,369.094l-11.311-11.303c-1.562-1.562-4.093-1.562-5.655,0c-1.562,1.562-1.562,4.099,0,5.654l11.31,11.303
			c0.781,0.781,1.804,1.172,2.827,1.172c1.024,0,2.047-0.391,2.829-1.172C316.324,373.186,316.324,370.655,314.762,369.094z"/>
	</g>
</g>
<g>
	<g>
		<path d="M314.761,417.097l-11.311-11.309c-1.562-1.562-4.093-1.562-5.655,0c-1.562,1.56-1.562,4.092,0,5.654l11.311,11.311
			c0.781,0.781,1.804,1.172,2.827,1.172c1.024,0,2.047-0.39,2.828-1.172C316.323,421.191,316.323,418.659,314.761,417.097z"/>
	</g>
</g>
<g>
	<g>
		<path d="M262.303,63.986h-6.358c-2.211,0-4,1.789-4,4c0,2.21,1.79,3.999,4,3.999h6.358c2.21,0,3.999-1.79,3.999-3.999
			C266.302,65.775,264.513,63.986,262.303,63.986z"/>
	</g>
</g>
<g>
</g>
<g>
</g>
<g>
</g>
<g>
</g>
<g>
</g>
<g>
</g>
<g>
</g>
<g>
</g>
<g>
</g>
<g>
</g>
<g>
</g>
<g>
</g>
<g>
</g>
<g>
</g>
<g>
</g>
</svg>
