<svg width="24" height="24" viewBox="0 0 24 24" fill="none" xmlns="http://www.w3.org/2000/svg">
<g clip-path="url(#clip0_2_123)">
<path d="M12 2V9.1C13.2 9.5 14 10.6 14 11.9C14 12.4 13.9 12.9 13.6 13.3L15.6 14.9C15.7 14.9 15.8 14.8 16 14.8C16.6 14.8 17 15.2 17 15.8C17 16.4 16.6 16.8 16 16.8C15.4 16.8 15 16.4 15 15.8V15.7L13 14.1C12.5 14.6 11.8 14.9 11 14.9C9.29999 14.9 7.99999 13.6 7.99999 11.9C7.99999 10.6 8.79999 9.5 9.99999 9.1V2.1H9.89999C6.39999 2.5 3.49999 5.4 3.09999 9C2.79999 11.2 3.39999 13.2 4.59999 14.8C5.49999 16 5.99999 17.3 5.99999 18.8V22H15V19H17C18.1 19 19 18.1 19 17V14L20.5 13.4C20.9 13.2 21.1 12.6 20.9 12.2L19 9.2C18.6 5.5 15.7 2.5 12 2ZM11 10.5C10.2 10.5 9.49999 11.2 9.49999 12C9.49999 12.8 10.2 13.5 11 13.5C11.8 13.5 12.5 12.8 12.5 12C12.5 11.2 11.8 10.5 11 10.5Z" fill="#3636EE"/>
</g>
<defs>
<clipPath id="clip0_2_123">
<rect width="24" height="24" fill="white"/>
</clipPath>
</defs>
</svg>
