<?xml version="1.0" encoding="iso-8859-1"?>
<!-- Generator: Adobe Illustrator 19.0.0, SVG Export Plug-In . SVG Version: 6.00 Build 0)  -->
<svg version="1.1" id="Capa_1" xmlns="http://www.w3.org/2000/svg" xmlns:xlink="http://www.w3.org/1999/xlink" x="0px" y="0px"
	 viewBox="0 0 480 480" style="enable-background:new 0 0 480 480;" xml:space="preserve">
<path style="fill:#8CE2FF;" d="M13.248,0h464v192h-464V0z"/>
<g>
	<path style="fill:#565151;" d="M253.248,40h176v16h-176V40z"/>
	<path style="fill:#565151;" d="M277.248,88h176v16h-176V88z"/>
	<path style="fill:#565151;" d="M245.248,136h176v16h-176V136z"/>
</g>
<path style="fill:#FD614B;" d="M227.177,41.625L125.764,80h-9.551c15.622-8.265,21.585-27.629,13.32-43.251
	s-27.629-21.585-43.251-13.32S64.697,51.058,72.962,66.68c3.003,5.676,7.644,10.317,13.32,13.32H69.118
	C49.918,80,32.7,91.825,25.807,109.746L2.752,199.303l25.151,11.608L61.248,112v216.835c0,8.376,6.79,15.165,15.165,15.165h1.67
	c8.376,0,15.165-6.79,15.165-15.165V216h16l1.671,113.059c0.123,8.287,6.875,14.941,15.164,14.941
	c8.376,0,15.165-6.79,15.165-15.165V112l101.408-49.093L227.177,41.625z"/>
<path style="fill:#565151;" d="M13.248,0h464v16h-464V0z"/>
<path style="fill:#FD614B;" d="M450.78,384.251c15.743-8.016,22.008-27.276,13.992-43.019
	c-8.016-15.743-27.276-22.008-43.019-13.992c-15.743,8.016-22.008,27.276-13.992,43.019c3.125,6.138,8.148,11.103,14.321,14.157
	c-14.227,2.014-24.809,14.179-24.834,28.547V480h80v-67.036C477.219,397.972,465.719,385.498,450.78,384.251z"/>
<path style="fill:#27AE60;" d="M322.78,384.251c15.743-8.016,22.008-27.276,13.992-43.019
	c-8.016-15.743-27.276-22.008-43.019-13.992c-15.743,8.016-22.008,27.276-13.992,43.019c3.125,6.138,8.148,11.103,14.321,14.157
	c-14.227,2.014-24.809,14.179-24.834,28.547V480h80v-67.036C349.219,397.972,337.719,385.498,322.78,384.251z"/>
<path style="fill:#FECD0D;" d="M194.78,384.251c15.743-8.016,22.008-27.276,13.992-43.019
	c-8.016-15.743-27.276-22.008-43.019-13.992s-22.008,27.276-13.992,43.019c3.125,6.138,8.148,11.103,14.321,14.157
	c-14.227,2.014-24.809,14.179-24.834,28.547V480h80v-67.036C221.219,397.972,209.719,385.498,194.78,384.251L194.78,384.251z"/>
<path style="fill:#8CE2FF;" d="M66.78,384.251c15.743-8.016,22.008-27.276,13.992-43.019c-8.016-15.743-27.276-22.008-43.019-13.992
	s-22.008,27.276-13.992,43.019c3.125,6.138,8.148,11.103,14.321,14.157c-14.227,2.014-24.809,14.179-24.834,28.547V480h80v-67.036
	C93.219,397.972,81.719,385.498,66.78,384.251z"/>
<g>
</g>
<g>
</g>
<g>
</g>
<g>
</g>
<g>
</g>
<g>
</g>
<g>
</g>
<g>
</g>
<g>
</g>
<g>
</g>
<g>
</g>
<g>
</g>
<g>
</g>
<g>
</g>
<g>
</g>
</svg>
